<?xml version="1.0" encoding="UTF-8" standalone="no"?>
<!-- Creator: CorelDRAW -->

<svg
   xmlns:dc="http://purl.org/dc/elements/1.1/"
   xmlns:cc="http://creativecommons.org/ns#"
   xmlns:rdf="http://www.w3.org/1999/02/22-rdf-syntax-ns#"
   xmlns:svg="http://www.w3.org/2000/svg"
   xmlns="http://www.w3.org/2000/svg"
   xmlns:sodipodi="http://sodipodi.sourceforge.net/DTD/sodipodi-0.dtd"
   xmlns:inkscape="http://www.inkscape.org/namespaces/inkscape"
   xml:space="preserve"
   width="90.311111mm"
   height="98.213333mm"
   style="clip-rule:evenodd;fill-rule:evenodd;image-rendering:optimizeQuality;shape-rendering:geometricPrecision;text-rendering:geometricPrecision"
   viewBox="0 0 13.668685 14.864621"
   id="svg2"
   version="1.1"
   inkscape:version="0.91 r13725"
   sodipodi:docname="logo-audiencias-publicas.svg"><metadata
     id="metadata31"><rdf:RDF><cc:Work
         rdf:about=""><dc:format>image/svg+xml</dc:format><dc:type
           rdf:resource="http://purl.org/dc/dcmitype/StillImage" /><dc:title></dc:title></cc:Work></rdf:RDF></metadata><sodipodi:namedview
     pagecolor="#ffffff"
     bordercolor="#666666"
     borderopacity="1"
     objecttolerance="10"
     gridtolerance="10"
     guidetolerance="10"
     inkscape:pageopacity="0"
     inkscape:pageshadow="2"
     inkscape:window-width="1865"
     inkscape:window-height="1053"
     id="namedview29"
     showgrid="false"
     fit-margin-top="0"
     fit-margin-left="0"
     fit-margin-right="0"
     fit-margin-bottom="0"
     inkscape:zoom="0.99220506"
     inkscape:cx="109.15088"
     inkscape:cy="118.92768"
     inkscape:window-x="1975"
     inkscape:window-y="27"
     inkscape:window-maximized="1"
     inkscape:current-layer="svg2" /><defs
     id="defs4"><style
       type="text/css"
       id="style6"><![CDATA[
    .fil4 {fill:#DEDEDD}
    .fil0 {fill:#F8C300}
    .fil3 {fill:white}
    .fil5 {fill:#293554}
    .fil1 {fill:#3D9BCA}
    .fil2 {fill:#47C7FF}
    .fil7 {fill:#F8C300;fill-rule:nonzero}
    .fil6 {fill:white;fill-rule:nonzero}
   ]]></style></defs><g
     id="Camada_x0020_1"
     transform="matrix(1.4658638,0,0,1.463081,9.9339055e-7,-1.721803e-5)"><metadata
       id="CorelCorpID_0Corel-Layer" /><path
       class="fil0"
       d="m 1.92776,0.0990441 c 1.81069,1.13385 3.46851,2.18997 5.2792,3.32382 0.129526,0.081094 0.197861,0.152668 0.179003,0.226921 0.018858,0.074253 -0.049477,0.145812 -0.179003,0.226906 -1.81069,1.13385 -3.46851,2.18997 -5.2792,3.32382 -0.195697,0.122549 -0.274642,0.171223 -0.274642,-0.092718 l 0,-3.45801 0,-3.45802 c 0,-0.263941 0.078945,-0.215267 0.274642,-0.0927177 z"
       id="path10"
       inkscape:connector-curvature="0"
       style="fill:#f8c300" /><g
       id="_118248960"><path
         id="_118245840"
         class="fil1"
         d="m 1.61066,2.43799 c 0.691311,0 1.25195,0.560635 1.25195,1.25195 0,0.563056 -0.371915,1.0394 -0.883436,1.19678 l -0.737034,0 C 0.730619,4.729345 0.358704,4.252998 0.358704,3.68994 c 0,-0.691311 0.560635,-1.25195 1.25196,-1.25195 z"
         inkscape:connector-curvature="0"
         style="fill:#3d9bca" /><path
         id="_118250904"
         class="fil2"
         d="M 1.24224,4.88672 C 0.730673,4.729375 0.358698,4.253043 0.358698,3.68994 c 0,-0.658786 0.509115,-1.1989 1.15528,-1.24827 0.450269,0.234579 0.75783,0.705553 0.75783,1.24827 0,0.036869 -0.00147,0.073405 -0.00425,0.109563 L 0.85850804,3.778949 0.88313284,3.789498 2.0655128,4.040211 c 0.068486,0.014515 0.153712,0.042363 0.123291,0.126757 -0.108443,0.30075 -0.31652,0.55393 -0.584351,0.71975 l -0.362213,0 z"
         inkscape:connector-curvature="0"
         style="fill:#47c7ff" /></g><path
       class="fil3"
       d="m 1.24214,4.88672 -0.241375,0 c -0.0530485,0 -0.096456,0.035779 -0.096456,0.07949 l 0,0.220821 c 0,0.04371 0.0434075,0.07949 0.096456,0.07949 l 1.22245,0 c 0.053033,0 0.096471,-0.035779 0.096471,-0.07949 l 0,-0.220821 c 0,-0.043695 -0.043407,-0.07949 -0.096471,-0.07949 l -0.244038,0 -0.374715,0 -0.362319,0 z"
       id="path15"
       inkscape:connector-curvature="0"
       style="fill:#ffffff" /><path
       class="fil3"
       d="m 2.09592,5.37905 -0.976684,0 0.190475,2.79326 c 0.00242,0.035734 0.029332,0.065157 0.065157,0.065157 l 0.232687,0 0.232733,0 c 0.035795,0 0.062705,-0.029423 0.065142,-0.065157 L 2.09592,5.37905 Z"
       id="path17"
       inkscape:connector-curvature="0"
       style="fill:#ffffff" /><path
       class="fil4"
       d="m 2.19162,4.96621 0,0.220821 c 0,0.04371 -0.043423,0.07949 -0.096471,0.07949 l 0.128058,0 c 0.053033,0 0.096471,-0.035779 0.096471,-0.07949 l 0,-0.220821 c 0,-0.043695 -0.043408,-0.07949 -0.096471,-0.07949 l -0.128058,0 c 0.053064,0 0.096471,0.035795 0.096471,0.07949 z"
       id="path19"
       inkscape:connector-curvature="0"
       style="fill:#dededd" /><path
       class="fil4"
       d="M 1.67036,5.37905 1.66137,8.17231 C 1.6612641,8.208104 1.632023,8.237467 1.596213,8.237467 l 0.011351,0 0.232733,0 c 0.035795,0 0.062705,-0.029423 0.065142,-0.065157 l 0.19049,-2.79326 -0.425569,0 z"
       id="path21"
       inkscape:connector-curvature="0"
       style="fill:#dededd" /><path
       class="fil5"
       d="m 0.953633,3.13556 c -0.0185556,0.018556 -0.0486594,0.018556 -0.067215,0 -0.0185405,-0.018556 -0.0185405,-0.048659 0,-0.067215 C 0.9789994,2.975764 1.088487,2.903297 1.207797,2.853881 1.326941,2.804525 1.455513,2.778402 1.586477,2.778402 c 0.026244,0 0.047524,0.021265 0.047524,0.047524 0,0.026244 -0.02128,0.047509 -0.047524,0.047509 C 1.46756,2.873435 1.351232,2.897 1.243818,2.941498 1.136525,2.985935 1.037678,3.0515 0.953633,3.13556 Z m 0.0308908,1.63863 1.25226,0 c 0.343431,-0.1988 0.583716,-0.556049 0.620766,-0.971704 -0.832204,0 -1.67164,0 -2.4938,0 0.0370507,0.415655 0.277336,0.772904 0.620766,0.971704 z M 0.6057228,3.63368 C 0.6113678,3.592724 0.6195714,3.552177 0.6302568,3.512251 0.6524751,3.429356 0.6856513,3.349049 0.7291799,3.273631 0.7422112,3.250974 0.7711344,3.243164 0.7937917,3.25618 0.816449,3.269196 0.8242587,3.298134 0.8112425,3.320792 0.7721637,3.388507 0.7422113,3.461185 0.7219605,3.536755 0.7134395,3.568614 0.7066589,3.600973 0.7016795,3.63368 l 2.15961,0 c -0.029438,-0.665203 -0.578176,-1.19569 -1.25063,-1.19569 -0.672468,0 -1.22121,0.530485 -1.25064,1.19569 l 0.245703,0 z m 0.395041,1.25304 1.22245,0 c 0.053064,0 0.096456,0.035794 0.096456,0.079505 l 0,0.220806 c 0,0.04371 -0.043407,0.07949 -0.096456,0.07949 l -1.22245,0 c -0.0530334,0 -0.096456,-0.035764 -0.096456,-0.07949 l 0,-0.220806 c 0,-0.043725 0.0434075,-0.079505 0.096456,-0.079505 z m 1.465,-0.079989 c 0.025805,0.023217 0.042091,0.056832 0.042091,0.09405 l 0,0.351679 c 0,0.069637 -0.056968,0.126605 -0.126605,0.126605 l -0.036415,0 -0.287113,2.93998 c -0.00527,0.053911 -0.044331,0.098469 -0.098469,0.098469 l -0.351679,0 -0.351679,0 c -0.054138,0 -0.093202,-0.044558 -0.098469,-0.098469 l -0.287113,-2.93998 -0.008279,0 c -0.0696366,0 -0.126605,-0.056968 -0.126605,-0.126605 l 0,-0.351679 c 0,-0.032434 0.0123654,-0.062114 0.032601,-0.084575 -0.314235,-0.235487 -0.526747,-0.599335 -0.559575,-1.01372 l -0.124062,0 C 0.0379731,3.8024856 -9e-7,3.7644965 -9e-7,3.7180771 l 0,0 c 0,-0.046419 0.037974,-0.084393 0.0843934,-0.084393 l 0.120793,0 c 0.0295589,-0.750671 0.647571,-1.35043 1.40548,-1.35043 0.75789,0 1.3759,0.599759 1.40546,1.35043 l 0.120793,0 c 0.046419,0 0.084393,0.037974 0.084393,0.084393 l 0,0 c 0,0.046419 -0.037974,0.084408 -0.084393,0.084408 l -0.124062,0 c -0.032374,0.408875 -0.23971,0.768546 -0.547089,1.00424 z m -0.369841,0.572334 -0.976699,0 0.19049,2.79323 c 0.00242,0.035749 0.029347,0.065157 0.065157,0.065157 l 0.232702,0 0.232702,0 c 0.035825,0 0.062735,-0.029407 0.065157,-0.065157 l 0.19049,-2.79323 z"
       id="path23"
       inkscape:connector-curvature="0"
       style="fill:#293554" /><path
       class="fil6"
       d="M 2.75241,7.52398 C 2.7527732,7.5218 2.75404,7.51945 2.75604,7.51691 2.75802,7.51437 2.76038,7.51201 2.76329,7.50984 2.76618,7.50766 2.76927,7.50584 2.77254,7.50457 2.77579,7.5033 2.77888,7.50277 2.78179,7.50277 l 0.139243,0 c 0.00616,0 0.011412,0.0018 0.015771,0.00562 0.00434,0.0038 0.00761,0.00725 0.00979,0.010156 l 0.013591,0.030997 0.285554,0.736459 c 0.00291,0.00725 0.00236,0.013046 -0.00163,0.017587 -0.00398,0.00453 -0.010882,0.00689 -0.020659,0.00689 l -0.156103,0 c -0.00834,0 -0.014696,-0.00163 -0.019222,-0.00471 C 3.043585,8.302679 3.039965,8.297599 3.037424,8.290346 3.030174,8.271851 3.023106,8.253371 3.01622,8.235058 3.00932,8.216745 3.002432,8.198431 2.995545,8.179936 l -0.288823,0 C 2.699832,8.198431 2.692949,8.216745 2.685881,8.235058 2.678811,8.253371 2.67173,8.271851 2.664843,8.290346 2.660133,8.303771 2.650888,8.310476 2.6371,8.310476 l -0.160447,0 c -0.00689,0 -0.012517,-0.00182 -0.017042,-0.00543 C 2.455081,8.301416 2.454181,8.295976 2.457071,8.28873 L 2.752417,7.523983 Z M 2.851409,7.756773 C 2.844509,7.775268 2.837621,7.795216 2.830553,7.816602 2.823483,7.838003 2.816417,7.859571 2.809515,7.881335 2.802625,7.903084 2.795742,7.924485 2.788674,7.94569 2.781604,7.966909 2.774538,7.986842 2.767636,8.005338 l 0.166986,0 -0.083213,-0.248564 z m 1.12154,0.544455 c -0.00471,0.004 -0.00961,0.00652 -0.014863,0.00761 -0.00527,0.00109 -0.010337,0.00163 -0.015044,0.00163 l -0.082138,0 c -0.00652,0 -0.012138,-0.00127 -0.01686,-0.00363 -0.00471,-0.00235 -0.0087,-0.00543 -0.011972,-0.00941 -0.00325,-0.004 -0.00598,-0.00854 -0.00816,-0.013606 C 3.821752,8.278752 3.819932,8.273485 3.818482,8.268051 L 3.801622,8.198429 C 3.796192,8.209674 3.788394,8.222358 3.778057,8.23669 3.76772,8.251008 3.754476,8.264418 3.738524,8.276934 3.722572,8.289436 3.703532,8.299955 3.681419,8.308476 3.659291,8.316996 3.63391,8.321356 3.605274,8.321356 3.56394,8.321356 3.526405,8.313376 3.492684,8.297427 3.458963,8.28146 3.430312,8.25971 3.406565,8.232149 3.382818,8.204588 3.364323,8.17232 3.351261,8.135511 3.338214,8.098718 3.331676,8.059548 3.331676,8.017851 l 0,-0.356265 c 0,-0.013773 0.00309,-0.024292 0.00907,-0.03136 0.00599,-0.00707 0.015423,-0.010519 0.028469,-0.010519 l 0.125652,0 c 0.015589,0 0.026274,0.00254 0.032086,0.00779 0.0058,0.00525 0.0087,0.015589 0.0087,0.03083 l 0,0.354086 c 0,0.015589 0.00362,0.03027 0.010701,0.044225 0.00707,0.01397 0.016316,0.02629 0.027909,0.03699 0.011609,0.0107 0.024837,0.019222 0.039533,0.025382 0.014681,0.00616 0.029544,0.00925 0.044785,0.00925 0.013046,0 0.026638,-0.00309 0.040607,-0.00925 C 3.713143,8.11285 3.726023,8.104511 3.737798,8.094173 3.749588,8.083836 3.759199,8.071697 3.766812,8.057728 3.774422,8.043773 3.778239,8.029092 3.778239,8.013488 l 0,-0.353541 c 0,-0.00616 0.00127,-0.01232 0.00362,-0.018495 0.00236,-0.00616 0.00581,-0.010867 0.010519,-0.014136 0.00472,-0.00291 0.00925,-0.00489 0.013425,-0.00598 0.00416,-0.00109 0.00887,-0.00163 0.014318,-0.00163 l 0.122927,0 c 0.015589,0 0.026835,0.00381 0.033721,0.011427 0.00689,0.00761 0.010337,0.017769 0.010337,0.030452 l 0,0.608643 c 0,0.00689 -0.00145,0.013228 -0.00454,0.019025 -0.00309,0.00581 -0.00743,0.010337 -0.012865,0.013606 l 0.00325,-0.00163 z M 4.604431,8.226173 C 4.594641,8.235963 4.583938,8.246469 4.572163,8.257715 4.560373,8.26896 4.547326,8.279479 4.533175,8.289257 4.519039,8.299047 4.503813,8.307026 4.487497,8.313382 4.471166,8.319722 4.453594,8.322992 4.434736,8.322992 4.385411,8.322992 4.340096,8.313742 4.298565,8.295249 4.257049,8.276754 4.221331,8.251372 4.191424,8.219286 4.161502,8.187184 4.138118,8.149483 4.121258,8.105969 4.104398,8.062456 4.095876,8.015673 4.095876,7.965636 c 0,-0.0504 0.00852,-0.097364 0.025382,-0.140696 C 4.138119,7.781608 4.161502,7.743907 4.191424,7.711805 4.221331,7.679719 4.25705,7.654519 4.298565,7.636205 4.340096,7.617892 4.38541,7.608826 4.434736,7.608826 c 0.019933,0 0.038246,0.00291 0.054744,0.0087 0.016497,0.00581 0.031557,0.013243 0.045148,0.022309 0.013606,0.00907 0.026108,0.019206 0.037535,0.030633 0.011412,0.011427 0.022112,0.022672 0.032268,0.033539 l 0,-0.248564 c 0,-0.011609 0.00363,-0.021386 0.010701,-0.029377 0.00707,-0.00798 0.017587,-0.011957 0.031723,-0.011957 l 0.122382,0 c 0.00471,0 0.00979,9.081e-4 0.015044,0.00289 0.00527,0.002 0.00997,0.0049 0.014333,0.00852 0.00434,0.00363 0.00798,0.00799 0.010685,0.013062 0.00272,0.00507 0.004,0.010701 0.004,0.01686 l 0,0.813149 c 0,0.027924 -0.014681,0.041879 -0.044058,0.041879 l -0.106612,0 c -0.00725,0 -0.012865,-9.082e-4 -0.01686,-0.00272 -0.00398,-0.0018 -0.00725,-0.00453 -0.00997,-0.00798 C 4.633089,8.296329 4.630549,8.291979 4.628369,8.286723 4.626209,8.281453 4.623479,8.275478 4.620209,8.268591 L 4.6044299,8.2261722 Z M 4.2916787,7.965637 c 0,0.023929 0.00381,0.046238 0.011245,0.067079 0.00743,0.020856 0.01795,0.038988 0.031723,0.054214 0.013788,0.015226 0.030467,0.027198 0.04987,0.036082 0.019388,0.00888 0.040789,0.01341 0.064354,0.01341 0.023202,0 0.045148,-0.00416 0.065626,-0.012502 0.020493,-0.00834 0.038261,-0.019948 0.053488,-0.034629 0.015241,-0.014696 0.027561,-0.03192 0.036809,-0.051853 0.00925,-0.019948 0.014318,-0.041349 0.015408,-0.064188 l 0,-0.00761 c 0,-0.023202 -0.00434,-0.04533 -0.013046,-0.066352 C 4.5984557,7.87825 4.5864807,7.859755 4.5710737,7.843803 4.5556667,7.827851 4.5375347,7.815152 4.5166777,7.805905 4.4958367,7.796675 4.4731647,7.792132 4.4488727,7.792132 c -0.023565,0 -0.044966,0.00454 -0.064355,0.013773 -0.019403,0.00925 -0.036082,0.021946 -0.04987,0.037898 -0.013773,0.015952 -0.024292,0.034447 -0.031723,0.055485 -0.00743,0.021023 -0.011245,0.04315 -0.011245,0.066352 z m 0.665763,-0.303504 c 0,-0.011609 0.00325,-0.021567 0.00978,-0.029907 0.00654,-0.00834 0.016679,-0.012517 0.030467,-0.012517 l 0.124547,0 c 0.00436,0 0.00907,9.081e-4 0.014151,0.00291 0.00507,0.00198 0.00979,0.00489 0.014136,0.0087 0.00436,0.0038 0.00816,0.00834 0.011245,0.01341 0.00307,0.00509 0.00453,0.010882 0.00453,0.017405 l 0,0.606464 c 0,0.013773 -0.0038,0.02411 -0.011412,0.031178 -0.00761,0.00707 -0.018495,0.010701 -0.032646,0.010701 l -0.124547,0 c -0.026834,0 -0.040244,-0.013955 -0.040244,-0.041879 l 0,-0.606464 z m 0,-0.275217 c 0,-0.015226 0.00325,-0.026108 0.00978,-0.03245 0.00654,-0.00636 0.016679,-0.00943 0.030467,-0.00943 l 0.126181,0 c 0.012698,0 0.023036,0.00307 0.03083,0.00943 0.00779,0.00634 0.011594,0.017224 0.011594,0.03245 l 0,0.106067 c 0,0.00434 -9.081e-4,0.00907 -0.00289,0.014136 -0.002,0.00507 -0.0049,0.00997 -0.00852,0.014681 -0.00363,0.00472 -0.00798,0.00852 -0.013243,0.011609 -0.00525,0.00309 -0.011245,0.00471 -0.017769,0.00471 l -0.126181,0 c -0.026834,0 -0.040244,-0.015044 -0.040244,-0.045133 l 0,-0.106067 z m 0.931717,0.840891 c -0.031905,0.029362 -0.067805,0.052216 -0.107701,0.068713 -0.039881,0.016497 -0.082123,0.024837 -0.126726,0.024837 -0.049673,0 -0.096638,-0.00907 -0.140878,-0.027198 C 5.4696137,8.276027 5.4308227,8.250827 5.3974647,8.218741 5.3641067,8.186639 5.3376357,8.148938 5.3180507,8.105424 5.2984657,8.061911 5.2886737,8.014583 5.2886737,7.963457 c 0,-0.031905 0.004,-0.062917 0.01179,-0.092824 0.00779,-0.029922 0.018858,-0.057831 0.033176,-0.083939 0.014333,-0.026108 0.031738,-0.050233 0.052216,-0.072164 0.020493,-0.021931 0.043332,-0.040608 0.068713,-0.056197 0.025382,-0.015604 0.052943,-0.027743 0.082683,-0.036445 0.029725,-0.0087 0.0611,-0.013062 0.094095,-0.013062 0.030089,0 0.059284,0.004 0.087572,0.011972 0.028272,0.00798 0.054925,0.019222 0.079762,0.033721 0.024837,0.014499 0.047509,0.031905 0.068168,0.052216 0.020675,0.020311 0.038443,0.042424 0.053306,0.066534 0.014878,0.02411 0.026471,0.049855 0.034629,0.077234 0.00816,0.027379 0.012154,0.055667 0.012154,0.084666 0,0.018858 -1.816e-4,0.034281 -7.265e-4,0.046238 -5.448e-4,0.011972 -0.00345,0.021401 -0.00852,0.028469 -0.00509,0.00707 -0.013425,0.011957 -0.0252,0.014681 -0.01179,0.00272 -0.029196,0.00418 -0.052034,0.00418 l -0.391621,0 c 0.00363,0.023202 0.011064,0.042605 0.022128,0.058194 0.011049,0.015589 0.023747,0.027924 0.038246,0.037172 0.014515,0.00925 0.029922,0.015952 0.046238,0.019933 0.016316,0.004 0.031723,0.00599 0.046223,0.00599 0.013062,0 0.026471,-0.00145 0.040259,-0.00418 0.013773,-0.00272 0.027198,-0.00634 0.040063,-0.010882 0.01288,-0.00453 0.024655,-0.00979 0.035356,-0.015771 0.010701,-0.00598 0.019222,-0.012138 0.025745,-0.018677 0.0058,-0.00471 0.010882,-0.00834 0.015044,-0.010685 0.00418,-0.00236 0.00852,-0.00345 0.013243,-0.00345 0.00471,0 0.00961,0.00163 0.014499,0.00489 0.0049,0.00327 0.010337,0.00798 0.016497,0.014151 l 0.057665,0.065263 c 0.00398,0.00472 0.00652,0.00888 0.00761,0.012698 0.00109,0.0038 0.00163,0.00779 0.00163,0.011775 0,0.00726 -0.002,0.013425 -0.00599,0.018677 -0.00398,0.00527 -0.0087,0.00997 -0.014136,0.01397 z M 5.6275337,7.774722 c -0.014136,0 -0.027743,0.00272 -0.040971,0.00834 -0.013243,0.00562 -0.025745,0.013243 -0.037353,0.022657 -0.011594,0.00943 -0.021931,0.02013 -0.031178,0.032102 -0.00925,0.011957 -0.01686,0.02411 -0.022672,0.036445 l 0.277941,0 C 5.7656907,7.860115 5.7575297,7.847068 5.7486457,7.835096 5.7397657,7.823124 5.7296057,7.81262 5.7181937,7.803554 5.7067667,7.794484 5.6937047,7.78742 5.6790237,7.782335 5.6643427,7.777265 5.6471187,7.774725 5.6275337,7.774725 Z m 0.00925,-0.443837 c 0.00254,-0.0018 0.00454,-0.00307 0.00598,-0.0038 0.00145,-7.265e-4 0.00345,-0.00109 0.00599,-0.00109 0.00289,0 0.00652,0.00163 0.010867,0.00489 l 0.139788,0.139243 c 0.00291,0.00218 0.00436,0.00636 0.00436,0.012517 0,0.00327 -0.00163,0.0067 -0.0049,0.010337 l -0.047857,0.048947 c -0.004,0.004 -0.00888,0.00598 -0.014681,0.00598 -0.00472,0 -0.0087,-0.00162 -0.011972,-0.00489 l -0.0756,-0.077234 -0.077234,0.077779 c -0.004,0.00398 -0.00816,0.00543 -0.012698,0.00434 -0.00453,-0.00109 -0.00834,-0.00307 -0.011245,-0.00598 L 5.4986347,7.494596 c -0.00182,-0.0018 -0.00291,-0.0038 -0.00345,-0.0058 -5.298e-4,-0.002 -0.00107,-0.00398 -0.00144,-0.00616 0,-0.00291 5.449e-4,-0.00527 0.00144,-0.00707 9.081e-4,-0.00182 0.002,-0.00345 0.00345,-0.0049 l 0.138153,-0.139788 z m 0.460698,0.298071 c 0.00471,-0.004 0.00979,-0.00652 0.015044,-0.00761 0.00525,-0.00109 0.010156,-0.00163 0.014863,-0.00163 l 0.082138,0 c 0.00652,0 0.012138,0.00109 0.01686,0.00345 0.00471,0.00235 0.0087,0.00562 0.011957,0.0096 0.00327,0.004 0.00599,0.00854 0.00799,0.013606 0.00198,0.00507 0.0038,0.010337 0.00562,0.015771 l 0.01686,0.069621 c 0.00543,-0.011245 0.01341,-0.02411 0.023747,-0.038443 0.010337,-0.014318 0.023384,-0.027728 0.039351,-0.040244 0.015952,-0.012502 0.034992,-0.02302 0.056923,-0.031542 0.021946,-0.00852 0.047328,-0.012698 0.076326,-0.012698 0.041334,0 0.078869,0.00798 0.11259,0.023929 0.033721,0.015967 0.062553,0.037717 0.0863,0.065278 0.023747,0.027561 0.04206,0.059647 0.055122,0.096456 0.013046,0.036809 0.019585,0.076145 0.019585,0.117842 l 0,0.356265 c 0,0.013773 -0.00291,0.02411 -0.00888,0.031178 -0.00599,0.00707 -0.015604,0.010701 -0.028651,0.010701 l -0.125652,0 c -0.015589,0 -0.02629,-0.00272 -0.032086,-0.00798 -0.0058,-0.00525 -0.0087,-0.015408 -0.0087,-0.030649 l 0,-0.354086 c 0,-0.015589 -0.00344,-0.030452 -0.010519,-0.044406 -0.00707,-0.01397 -0.016497,-0.02629 -0.028091,-0.03699 -0.011609,-0.010701 -0.02467,-0.01904 -0.039351,-0.0252 -0.014681,-0.00616 -0.029725,-0.00925 -0.044966,-0.00925 -0.013047,0 -0.02629,0.00291 -0.039881,0.0087 -0.013591,0.0058 -0.026108,0.013773 -0.037535,0.02411 -0.011412,0.010337 -0.021023,0.022476 -0.028817,0.036445 -0.00779,0.013955 -0.012335,0.029196 -0.013425,0.045511 l 0,0.353541 c 0,0.00616 -0.00109,0.01232 -0.00344,0.018495 -0.00236,0.00616 -0.00599,0.010867 -0.0107,0.014136 -0.00472,0.00291 -0.00907,0.00489 -0.013243,0.00598 -0.00416,0.00109 -0.00907,0.00163 -0.014499,0.00163 l -0.122927,0 c -0.015589,0 -0.026834,-0.00381 -0.033721,-0.011427 -0.00689,-0.00761 -0.010337,-0.017769 -0.010337,-0.030452 l 0,-0.608643 c 0,-0.00689 0.00163,-0.013228 0.00472,-0.019025 0.00309,-0.00581 0.00725,-0.010337 0.012683,-0.013607 l -0.00325,0.00163 z m 1.20312,0.468855 c 0.00509,-0.00363 0.00997,-0.00599 0.014515,-0.0069 0.00453,-8.93e-4 0.00798,-0.00126 0.010504,-0.00126 0.00618,0 0.01179,0.00126 0.016861,0.0038 0.00509,0.00254 0.010337,0.00798 0.015786,0.016316 l 0.060904,0.091931 c 0.00182,0.00289 0.00363,0.00616 0.00527,0.00978 0.00163,0.00363 0.00236,0.00654 0.00236,0.0087 0,0.00834 -0.00254,0.015059 -0.00779,0.020311 -0.00527,0.00525 -0.011064,0.00997 -0.017224,0.013955 -0.02974,0.020675 -0.06219,0.037172 -0.097546,0.049689 -0.035356,0.012502 -0.072891,0.018858 -0.112408,0.018858 -0.032631,0 -0.064006,-0.00418 -0.094277,-0.012517 C 7.0672717,8.302134 7.0389987,8.290163 7.0128907,8.274755 6.9867827,8.259347 6.9628387,8.240852 6.9410897,8.219285 6.9193257,8.197702 6.9008457,8.173774 6.8856047,8.147302 6.8703787,8.120831 6.8585887,8.09218 6.8500677,8.061547 6.8415477,8.030898 6.8372027,7.998994 6.8372027,7.965636 c 0,-0.033358 0.00434,-0.065444 0.012865,-0.096274 0.00852,-0.030815 0.020311,-0.059466 0.035537,-0.085756 0.015241,-0.02629 0.033721,-0.050218 0.055485,-0.071801 0.021749,-0.021567 0.045693,-0.039881 0.071801,-0.055107 0.026108,-0.015241 0.05438,-0.027016 0.084666,-0.035356 0.03027,-0.00834 0.061645,-0.012517 0.094277,-0.012517 0.039518,0 0.076145,0.00527 0.109684,0.015771 0.033539,0.010519 0.064914,0.026108 0.094277,0.046783 l -0.00163,-0.00163 c 0.00798,0.00472 0.014333,0.010156 0.01904,0.016497 0.00472,0.00636 0.00707,0.014333 0.00707,0.023762 0,0.00652 -0.00216,0.013228 -0.00652,0.020115 l -0.048402,0.082138 c -0.010156,0.017769 -0.022491,0.026653 -0.03699,0.026653 -0.00327,0 -0.00725,-9.081e-4 -0.011972,-0.00254 -0.00471,-0.00163 -0.00996,-0.00436 -0.015771,-0.00834 -0.015952,-0.010519 -0.032995,-0.019222 -0.051308,-0.025926 -0.018313,-0.0067 -0.037883,-0.00997 -0.058558,-0.00997 -0.022839,0 -0.043877,0.00454 -0.063098,0.013773 -0.019222,0.00925 -0.035537,0.021946 -0.049129,0.037898 -0.013591,0.015952 -0.024292,0.034447 -0.031905,0.055485 -0.00761,0.021023 -0.011427,0.04315 -0.011427,0.066352 0,0.023929 0.00381,0.046238 0.011427,0.067079 0.00761,0.020856 0.018313,0.038988 0.031905,0.054214 0.013591,0.015226 0.029907,0.027198 0.049129,0.036082 0.019222,0.00888 0.040259,0.01341 0.063098,0.01341 0.020675,0 0.040063,-0.00362 0.058194,-0.010882 0.018132,-0.00725 0.035356,-0.016497 0.051671,-0.027728 z m 0.228994,-0.435679 c 0,-0.011609 0.00325,-0.021567 0.00978,-0.029907 0.00654,-0.00834 0.016679,-0.012517 0.030467,-0.012517 l 0.124547,0 c 0.00436,0 0.00907,9.081e-4 0.014151,0.00291 0.00507,0.00198 0.00979,0.00489 0.014136,0.0087 0.00436,0.0038 0.00816,0.00834 0.011245,0.01341 0.00307,0.00509 0.00453,0.010882 0.00453,0.017405 l 0,0.606464 c 0,0.013773 -0.0038,0.02411 -0.011412,0.031178 -0.00761,0.00707 -0.018495,0.010701 -0.032646,0.010701 l -0.124547,0 c -0.026835,0 -0.040244,-0.013955 -0.040244,-0.041879 l 0,-0.606464 z m 0,-0.275217 c 0,-0.015226 0.00325,-0.026108 0.00978,-0.03245 0.00654,-0.00636 0.016679,-0.00943 0.030467,-0.00943 l 0.126181,0 c 0.012698,0 0.023036,0.00307 0.03083,0.00943 0.00779,0.00634 0.011594,0.017224 0.011594,0.03245 l 0,0.106067 c 0,0.00434 -9.081e-4,0.00907 -0.00289,0.014136 -0.002,0.00507 -0.0049,0.00997 -0.00852,0.014681 -0.00363,0.00472 -0.00798,0.00852 -0.013243,0.011609 -0.00525,0.00309 -0.011245,0.00471 -0.017769,0.00471 l -0.126181,0 c -0.026834,0 -0.040244,-0.015044 -0.040244,-0.045133 l 0,-0.106067 z m 1.05029,0.883315 c 0,0.00616 -0.00109,0.011957 -0.00327,0.017587 -0.00216,0.00562 -0.0058,0.010141 -0.010867,0.01341 -0.004,0.004 -0.0087,0.00652 -0.014151,0.00761 -0.00543,0.00109 -0.01014,0.00163 -0.014136,0.00163 l -0.107157,0 c -0.00761,0 -0.013773,-0.00109 -0.01848,-0.00309 -0.00472,-0.00198 -0.00852,-0.00471 -0.011427,-0.00834 -0.00291,-0.00362 -0.00527,-0.00816 -0.00725,-0.01341 -0.002,-0.00527 -0.00418,-0.010882 -0.00636,-0.017042 L 8.3710167,8.227796 c -0.00979,0.00978 -0.020478,0.020115 -0.032086,0.031178 -0.011609,0.011064 -0.024292,0.021386 -0.038262,0.030815 -0.013955,0.00943 -0.02918,0.017224 -0.045496,0.02358 -0.016316,0.00634 -0.033721,0.00961 -0.052216,0.00961 -0.032994,0 -0.064551,-0.00418 -0.094821,-0.012517 C 8.0778507,8.302122 8.0495777,8.290151 8.0232887,8.274743 7.9969987,8.259335 7.9730557,8.24084 7.9516697,8.219273 7.9302687,8.19769 7.9119547,8.173762 7.8965477,8.14729 7.8811397,8.120819 7.8691687,8.092168 7.8608287,8.061535 7.8524887,8.030886 7.8483267,7.998982 7.8483267,7.965624 c 0,-0.0504 0.00925,-0.097364 0.027743,-0.140696 0.01848,-0.043332 0.043695,-0.081033 0.0756,-0.113135 0.031905,-0.032086 0.06944,-0.057286 0.11259,-0.0756 0.04315,-0.018314 0.089373,-0.027379 0.138698,-0.027379 0.022476,0 0.04315,0.00327 0.062008,0.00997 0.018843,0.0067 0.036067,0.015589 0.05149,0.026471 0.015408,0.010882 0.029362,0.023202 0.041879,0.03699 0.012502,0.013773 0.023565,0.027743 0.033358,0.041879 l 0.021204,-0.065807 c 0.00363,-0.00907 0.00672,-0.016512 0.00907,-0.022127 0.00236,-0.00562 0.0049,-0.00979 0.00763,-0.012502 0.00271,-0.00272 0.00598,-0.00454 0.00996,-0.00545 0.004,-9.081e-4 0.00961,-0.00127 0.01686,-0.00127 l 0.081048,0 c 0.004,0 0.0087,5.449e-4 0.014136,0.00163 0.00545,0.00109 0.010156,0.00363 0.014151,0.00761 0.00507,0.004 0.0087,0.00852 0.010867,0.013606 0.00218,0.00507 0.00327,0.010867 0.00327,0.017405 l 0,0.612987 z M 8.0441313,7.965636 c 0,0.023929 0.00381,0.046238 0.011245,0.067079 0.00743,0.020856 0.01795,0.038988 0.031723,0.054214 0.013788,0.015226 0.030467,0.027198 0.049855,0.036082 0.019403,0.00888 0.040804,0.01341 0.06437,0.01341 0.024292,0 0.046964,-0.00453 0.067805,-0.01341 0.020856,-0.00888 0.038988,-0.020856 0.054396,-0.036082 0.015408,-0.015226 0.027379,-0.033358 0.036082,-0.054214 0.0087,-0.020841 0.013047,-0.04315 0.013047,-0.067079 0,-0.023202 -0.00434,-0.04533 -0.013047,-0.066352 C 8.3509073,7.878246 8.3389323,7.859751 8.3235253,7.843799 8.3081173,7.827847 8.2899863,7.815148 8.2691293,7.805901 8.2482883,7.796671 8.2256163,7.792128 8.2013243,7.792128 c -0.023565,0 -0.044966,0.00454 -0.06437,0.013773 -0.019388,0.00925 -0.036067,0.021946 -0.049855,0.037898 -0.013773,0.015952 -0.024292,0.034447 -0.031723,0.055485 -0.00743,0.021023 -0.011245,0.04315 -0.011245,0.066352 z m 0.769635,0.129995 c 0.00979,0.00979 0.020493,0.01795 0.03192,0.024655 0.011412,0.0067 0.022294,0.012154 0.032813,0.016316 0.010519,0.00418 0.019766,0.00725 0.027743,0.00907 0.00798,0.00182 0.01341,0.00272 0.016316,0.00272 0.00689,0 0.015771,-3.632e-4 0.026471,-9.081e-4 0.010701,-5.448e-4 0.020841,-0.00218 0.030634,-0.0049 0.00979,-0.00271 0.018313,-0.00707 0.025382,-0.013228 0.00707,-0.00616 0.010519,-0.014863 0.010519,-0.026108 0,-0.010156 -0.002,-0.018314 -0.00598,-0.024292 -0.004,-0.00598 -0.00979,-0.011064 -0.017405,-0.015226 -0.00761,-0.00418 -0.01686,-0.00781 -0.027924,-0.011064 -0.011064,-0.00327 -0.023565,-0.00707 -0.037353,-0.011427 -0.043513,-0.011594 -0.079399,-0.025563 -0.107686,-0.041879 -0.028288,-0.016316 -0.050581,-0.034629 -0.067079,-0.054759 -0.016497,-0.020115 -0.028106,-0.041697 -0.034629,-0.064899 -0.00654,-0.023202 -0.00979,-0.047691 -0.00979,-0.073435 0,-0.030089 0.00598,-0.057468 0.01795,-0.082123 0.011957,-0.024655 0.028999,-0.045875 0.051126,-0.063461 0.022112,-0.017587 0.048584,-0.031178 0.079414,-0.040789 0.030815,-0.00961 0.065081,-0.014318 0.102798,-0.014318 0.022839,0 0.04424,0.0018 0.064173,0.00562 0.019948,0.00381 0.038988,0.00979 0.05712,0.01795 0.018132,0.00816 0.035885,0.018677 0.053109,0.031542 0.017224,0.01288 0.034266,0.028288 0.051323,0.046056 0.00616,0.00725 0.00941,0.013955 0.0096,0.020311 1.817e-4,0.00634 -0.00398,0.013228 -0.01232,0.020478 -0.014151,0.011609 -0.027561,0.023036 -0.040426,0.034266 -0.01288,0.011245 -0.02629,0.023747 -0.040078,0.037535 -0.00434,0.00362 -0.0087,0.0058 -0.013046,0.0067 -0.00436,9.081e-4 -0.00852,9.081e-4 -0.012517,-1.816e-4 -0.00398,-0.00109 -0.00779,-0.00291 -0.011427,-0.00543 -0.00362,-0.00254 -0.00689,-0.00563 -0.00978,-0.00925 -0.012698,-0.014151 -0.027198,-0.023747 -0.043513,-0.028651 -0.016331,-0.00489 -0.031557,-0.00725 -0.045693,-0.00725 -0.017769,0 -0.031905,0.00309 -0.042424,0.00925 -0.010519,0.00616 -0.015408,0.015589 -0.014681,0.028288 7.114e-4,0.00943 0.00434,0.016679 0.010685,0.021931 0.00636,0.00525 0.014151,0.00961 0.023399,0.01288 0.00923,0.00325 0.019025,0.0058 0.029362,0.00779 0.010337,0.00198 0.019766,0.00434 0.028469,0.00689 0.032631,0.010519 0.062553,0.021931 0.089736,0.034266 0.027198,0.012335 0.050778,0.027379 0.070711,0.04533 0.019948,0.01795 0.035537,0.039518 0.046601,0.064536 0.011064,0.025018 0.016497,0.055485 0.016497,0.091386 0,0.035885 -0.00707,0.067987 -0.021401,0.096259 -0.014318,0.028287 -0.034084,0.052034 -0.059102,0.071256 -0.025018,0.019222 -0.054562,0.033903 -0.088828,0.044058 -0.034266,0.010156 -0.071256,0.015226 -0.110789,0.015226 -0.022476,0 -0.045314,-0.00198 -0.068532,-0.00598 -0.023202,-0.00398 -0.045678,-0.010519 -0.067442,-0.019403 -0.021749,-0.00888 -0.042424,-0.020296 -0.062008,-0.034266 -0.01957,-0.013955 -0.036975,-0.030815 -0.052216,-0.050763 -0.00398,-0.00507 -0.00689,-0.010519 -0.00888,-0.016134 -0.00198,-0.00562 -0.00289,-0.011064 -0.00271,-0.016497 1.816e-4,-0.00543 0.00127,-0.010519 0.00325,-0.015044 0.002,-0.00454 0.00509,-0.00834 0.00943,-0.011609 L 8.76482,8.084749 c 0.0087,-0.00725 0.016497,-0.00979 0.023202,-0.00761 0.00672,0.00218 0.015241,0.00834 0.025745,0.018495 z"
       id="path25"
       inkscape:connector-curvature="0"
       style="fill:#ffffff;fill-rule:nonzero" /><path
       class="fil7"
       d="m 1.21465,8.86447 c 0,-0.012365 0.00324,-0.0224 0.00972,-0.029756 0.00649,-0.00737 0.016225,-0.010912 0.029181,-0.010912 l 0.565024,0 c 0.040668,0 0.07899,0.0056 0.114951,0.0168 0.035946,0.0112 0.068955,0.026532 0.099029,0.046268 0.030058,0.019751 0.05718,0.043332 0.081351,0.070742 0.024156,0.02741 0.0448,0.05718 0.0616,0.08901 0.0168,0.031829 0.029468,0.065142 0.038307,0.10021 0.00884,0.035083 0.013258,0.070742 0.013258,0.106703 0,0.053049 -0.00943,0.104932 -0.028575,0.155619 C 2.179335,9.459857 2.151925,9.504944 2.116555,9.544447 2.081184,9.583934 2.038745,9.615764 1.989223,9.640237 1.939701,9.664695 1.884882,9.677363 1.824765,9.677954 l -0.267922,0 0,0.420892 c 0,0.02535 -0.013561,0.03802 -0.040668,0.03802 l -0.262624,0 c -0.01179,0 -0.021219,-0.0032 -0.028288,-0.0094 -0.00707,-0.0062 -0.01061,-0.01562 -0.01061,-0.02859 l 0,-1.23437 z m 0.665808,0.387292 c 0,-0.017678 -0.00294,-0.035371 -0.00913,-0.053048 C 1.865138,9.181021 1.855996,9.165114 1.844206,9.151265 1.832416,9.137401 1.818264,9.126201 1.801465,9.117362 1.784665,9.108522 1.765504,9.104104 1.744285,9.104104 l -0.187448,0 0,0.295316 0.187448,0 c 0.021219,0 0.04038,-0.00442 0.057483,-0.012956 C 1.818855,9.377914 1.833294,9.367 1.844797,9.353454 1.856284,9.339893 1.865139,9.324274 1.871329,9.306581 1.877519,9.288903 1.880459,9.27062 1.880459,9.251762 Z m 1.54473,0.870072 c -0.00767,0.0065 -0.015635,0.01061 -0.024171,0.01238 -0.00855,0.0018 -0.0168,0.0026 -0.024474,0.0026 l -0.133507,0 c -0.01061,0 -0.019751,-0.0021 -0.02741,-0.0059 -0.00767,-0.0038 -0.014151,-0.0089 -0.019464,-0.01533 -0.0053,-0.0065 -0.00972,-0.01385 -0.013258,-0.02211 -0.00354,-0.0082 -0.00648,-0.0168 -0.00884,-0.02564 L 3.146654,9.9546544 c -0.00884,0.018283 -0.021522,0.038912 -0.038322,0.062191 -0.0168,0.02329 -0.038307,0.0451 -0.064248,0.06543 -0.025942,0.02034 -0.056893,0.03744 -0.092839,0.05129 -0.035961,0.01385 -0.077234,0.02092 -0.12379,0.02092 -0.0672,0 -0.128225,-0.01295 -0.183044,-0.0389 -0.054819,-0.02594 -0.10139,-0.06131 -0.14,-0.106112 C 2.465801,9.9646734 2.435743,9.9122154 2.414524,9.8523865 2.393305,9.7925575 2.382695,9.7288845 2.382695,9.6610935 l 0,-0.57916 c 0,-0.0224 0.00501,-0.039488 0.014726,-0.05099 0.00973,-0.011487 0.025064,-0.017087 0.046283,-0.017087 l 0.204248,0 c 0.025351,0 0.042741,0.00412 0.052171,0.012668 0.00943,0.00855 0.014151,0.025351 0.014151,0.050112 l 0,0.575618 c 0,0.025351 0.00589,0.049219 0.01739,0.071922 0.011487,0.022687 0.026517,0.042726 0.04539,0.060117 0.018858,0.01739 0.040365,0.031254 0.064249,0.041273 0.023868,0.010019 0.048039,0.015029 0.0728,0.015029 0.021219,0 0.043332,-0.00501 0.066019,-0.015029 0.022703,-0.010019 0.043619,-0.02358 0.06278,-0.04038 0.019161,-0.0168 0.034781,-0.036551 0.047161,-0.059254 0.012381,-0.022687 0.018571,-0.046556 0.018571,-0.071907 l 0,-0.574741 c 0,-0.010019 0.00206,-0.020039 0.00589,-0.030058 0.00383,-0.010035 0.00943,-0.017693 0.017103,-0.02299 0.00766,-0.00472 0.015029,-0.00796 0.02181,-0.00973 0.00678,-0.00177 0.014439,-0.00265 0.023278,-0.00265 l 0.199829,0 c 0.025351,0 0.043619,0.00619 0.054819,0.018571 0.0112,0.012365 0.0168,0.028878 0.0168,0.049507 l 0,0.9894415 c 0,0.0112 -0.00235,0.02151 -0.00736,0.03095 -0.00501,0.0094 -0.012093,0.0168 -0.020932,0.0221 l 0.00531,-0.0026 z M 2.838945,8.660224 c 0.00295,-0.013561 0.00914,-0.023278 0.018268,-0.028878 0.00914,-0.0056 0.018571,-0.00826 0.02859,-0.00826 l 0.228131,0 c 0.00884,0 0.015619,0.00177 0.020039,0.00531 0.00442,0.00354 0.00737,0.00796 0.00885,0.013258 0.00147,0.00531 0.00147,0.0112 2.876e-4,0.017981 -0.00118,0.00678 -0.00324,0.013561 -0.00619,0.020039 l -0.086648,0.190112 c -0.00708,0.012971 -0.013849,0.0224 -0.020629,0.028287 -0.00678,0.0059 -0.015922,0.00885 -0.027122,0.00885 l -0.193639,0 c -0.00884,0 -0.014742,-0.00236 -0.01798,-0.00708 -0.00324,-0.00471 -0.00501,-0.010307 -0.00501,-0.0168 0,-0.00648 8.779e-4,-0.013546 0.00265,-0.021219 0.00177,-0.00766 0.00324,-0.014151 0.00442,-0.019449 l 0.04598,-0.182151 z m 1.09908,1.40856 c -0.0053,0.0112 -0.00972,0.02092 -0.013258,0.02947 -0.00354,0.0086 -0.00737,0.01562 -0.01179,0.02122 -0.00442,0.0056 -0.010019,0.01002 -0.016512,0.01297 -0.00648,0.003 -0.015317,0.0044 -0.026517,0.0044 l -0.175083,0 c -0.047161,0 -0.070726,-0.02269 -0.070726,-0.06808 l 0,-1.3210199 c 0,-0.010019 0.00206,-0.019161 0.00589,-0.02741 0.00383,-0.00826 0.00884,-0.015332 0.015029,-0.021219 0.00619,-0.0059 0.013273,-0.01061 0.021219,-0.013864 0.00796,-0.00324 0.015619,-0.00471 0.023293,-0.00471 l 0.200707,0 c 0.0224,0 0.040093,0.00648 0.053064,0.019449 0.012971,0.012971 0.019449,0.028878 0.019449,0.047751 l 0,0.403199 c 0.016512,-0.017678 0.03419,-0.035658 0.053049,-0.053942 0.018873,-0.018268 0.039503,-0.035068 0.0616,-0.050097 0.022112,-0.015029 0.046283,-0.027122 0.0728,-0.036551 0.026532,-0.00943 0.056,-0.014151 0.088434,-0.014151 0.080156,0 0.154136,0.014742 0.221638,0.044512 0.067487,0.029771 0.125561,0.070741 0.17419,0.122897 0.048629,0.052171 0.086649,0.113483 0.114058,0.183922 0.02741,0.070439 0.040971,0.14678 0.040971,0.228722 0,0.081351 -0.013561,0.15739 -0.040971,0.228131 -0.02741,0.070726 -0.065429,0.132039 -0.114058,0.184209 -0.048629,0.052171 -0.106703,0.093429 -0.17419,0.1234869 -0.067503,0.03007 -0.141483,0.0451 -0.221638,0.0451 -0.030073,0 -0.058361,-0.0053 -0.084893,-0.01562 -0.026532,-0.01032 -0.051278,-0.02329 -0.074268,-0.0392 -0.02299,-0.01592 -0.04421,-0.03302 -0.063673,-0.05129 C 3.99639,10.032799 3.978713,10.015699 3.96279,9.9997921 l -0.024761,0.06897 z M 4.471205,9.576273 C 4.471205,9.538541 4.465315,9.50258 4.453224,9.46839 4.441146,9.4342 4.423756,9.404142 4.401356,9.3782 4.378956,9.352274 4.352137,9.331629 4.320898,9.3166 4.289644,9.301571 4.254576,9.2942 4.215679,9.2942 4.176767,9.2942 4.140518,9.30157 4.106615,9.3166 4.072728,9.331629 4.043244,9.352273 4.018498,9.3782 3.993737,9.404142 3.974273,9.4342 3.959834,9.46839 3.945395,9.50258 3.938024,9.538541 3.938024,9.576273 l 0,0.01238 c 0.00177,0.037126 0.010322,0.071907 0.025351,0.104326 0.015029,0.032435 0.03478,0.060434 0.059541,0.084302 0.024746,0.023868 0.053639,0.042741 0.086648,0.056287 0.03301,0.013561 0.06838,0.020342 0.106112,0.020342 0.038897,0 0.073965,-0.00737 0.105219,-0.02181 C 4.352134,9.817661 4.378953,9.798212 4.401353,9.773451 4.423753,9.74869 4.441143,9.719222 4.453221,9.685319 4.465314,9.651431 4.471202,9.615168 4.471202,9.576271 Z M 4.968151,8.747762 c 0,-0.018873 0.00471,-0.034781 0.014136,-0.047751 C 4.991717,8.68704 5.007941,8.680562 5.030931,8.680562 l 0.216629,0 c 0.00589,0 0.012078,0.00147 0.018571,0.00471 0.00648,0.00325 0.012668,0.00796 0.018268,0.013864 0.0056,0.00589 0.010322,0.012956 0.014151,0.021219 0.00383,0.00825 0.0056,0.01739 0.0056,0.02741 l 0,1.32102 c 0,0.0224 -0.00619,0.0392 -0.018873,0.05069 -0.012668,0.0115 -0.029165,0.01739 -0.049219,0.01739 l -0.205126,0 c -0.02299,0 -0.039215,-0.0059 -0.048644,-0.01739 -0.00943,-0.01149 -0.014136,-0.02829 -0.014136,-0.05069 l 0,-1.32102 z m 0.547316,0.335122 c 0,-0.018873 0.00531,-0.035083 0.015922,-0.048644 0.01061,-0.013546 0.027107,-0.020326 0.049507,-0.020326 l 0.202493,0 c 0.00707,0 0.014742,0.00147 0.02299,0.00471 0.00825,0.00324 0.015907,0.00796 0.02299,0.014151 0.00707,0.00619 0.013258,0.013561 0.018268,0.02181 0.00501,0.00825 0.00737,0.017693 0.00737,0.028303 l 0,0.985901 c 0,0.0224 -0.00619,0.0392 -0.018571,0.05069 -0.01238,0.0115 -0.030058,0.01739 -0.053049,0.01739 l -0.202493,0 c -0.043619,0 -0.065429,-0.02269 -0.065429,-0.06808 l 0,-0.985901 z m 0,-0.447424 c 0,-0.024761 0.00531,-0.042439 0.015922,-0.052761 0.01061,-0.010307 0.027107,-0.015317 0.049507,-0.015317 l 0.205141,0 c 0.020629,0 0.037429,0.00501 0.050112,0.015317 0.012668,0.010322 0.018858,0.028 0.018858,0.052761 l 0,0.172419 c 0,0.00708 -0.00147,0.014742 -0.00472,0.02299 C 5.847047,8.839129 5.842337,8.847094 5.836438,8.854752 5.830548,8.862412 5.823467,8.868601 5.814931,8.87361 5.806381,8.87862 5.796648,8.88127 5.786038,8.88127 l -0.205141,0 c -0.043619,0 -0.065429,-0.024458 -0.065429,-0.07339 l 0,-0.172419 z m 1.27062,1.15567 c 0.00826,-0.00589 0.01621,-0.00972 0.02358,-0.0112 0.00737,-0.00147 0.012971,-0.00206 0.017103,-0.00206 0.010019,0 0.019146,0.00206 0.02741,0.00619 0.00825,0.00412 0.0168,0.012971 0.025639,0.026517 l 0.099029,0.149444 c 0.00295,0.00471 0.0059,0.010019 0.00855,0.015907 0.00265,0.0059 0.00383,0.01061 0.00383,0.014151 0,0.013561 -0.00413,0.024458 -0.012668,0.03301 -0.00855,0.0086 -0.017981,0.01621 -0.028,0.0227 -0.048342,0.0336 -0.101103,0.06042 -0.158571,0.08075 -0.057483,0.02034 -0.118493,0.03066 -0.182741,0.03066 -0.053049,0 -0.104039,-0.0068 -0.153258,-0.02034 -0.049234,-0.01356 -0.0952,-0.03301 -0.137654,-0.05806 C 6.275897,10.053739 6.237,10.023679 6.201629,9.988609 6.166258,9.953526 6.136185,9.914629 6.111439,9.871599 6.086678,9.828555 6.067517,9.781999 6.053668,9.732174 6.039819,9.682364 6.032736,9.630496 6.032736,9.576267 c 0,-0.054229 0.00708,-0.1064 0.020932,-0.156512 C 6.067517,9.369658 6.086678,9.323087 6.111439,9.280346 6.136185,9.237605 6.166258,9.198707 6.201629,9.163624 6.237,9.128556 6.275897,9.098785 6.318336,9.074024 6.36079,9.049278 6.406755,9.030117 6.45599,9.016556 6.505209,9.002995 6.5562,8.996214 6.609248,8.996214 c 0.064248,0 0.12379,0.00855 0.178322,0.025639 0.054517,0.017103 0.105507,0.042454 0.153258,0.076054 l -0.00265,-0.00266 c 0.012971,0.00767 0.023278,0.016512 0.030951,0.026834 0.00766,0.010307 0.011488,0.023278 0.011488,0.03861 0,0.01061 -0.00354,0.021507 -0.01061,0.032707 L 6.891304,9.32692 C 6.874807,9.355798 6.854768,9.370252 6.831187,9.370252 c -0.00531,0 -0.01179,-0.00148 -0.019464,-0.00413 C 6.804063,9.363472 6.795513,9.359052 6.786084,9.352561 6.760158,9.335473 6.732445,9.321322 6.702674,9.31041 6.672903,9.299513 6.641074,9.2942 6.607474,9.2942 6.570332,9.2942 6.536142,9.30157 6.504903,9.3166 6.473664,9.331629 6.447132,9.352273 6.425035,9.3782 6.402923,9.404142 6.385532,9.4342 6.373152,9.46839 6.360787,9.50258 6.354596,9.538541 6.354596,9.576273 c 0,0.038897 0.00619,0.075161 0.018556,0.109048 0.01238,0.033903 0.029771,0.063371 0.051883,0.088132 0.022097,0.024761 0.048629,0.04421 0.079868,0.058648 0.031239,0.014439 0.065429,0.02181 0.102571,0.02181 0.0336,0 0.065142,-0.00589 0.09461,-0.017678 0.029483,-0.01179 0.057483,-0.026819 0.084,-0.045103 z m 1.49167,0.280302 c 0,0.01002 -0.00176,0.01945 -0.0053,0.02859 -0.00354,0.0091 -0.00943,0.0165 -0.017678,0.02181 -0.00649,0.0065 -0.014151,0.01061 -0.02299,0.01238 -0.00885,0.0018 -0.016512,0.0026 -0.02299,0.0026 l -0.17419,0 c -0.012381,0 -0.0224,-0.0018 -0.030074,-0.005 -0.00766,-0.0032 -0.013849,-0.0077 -0.018571,-0.01356 -0.00471,-0.0059 -0.00854,-0.01326 -0.01179,-0.02181 -0.00324,-0.0086 -0.00677,-0.01768 -0.010307,-0.0277 l -0.025639,-0.06632 c -0.015922,0.01592 -0.033312,0.03272 -0.052171,0.05069 -0.018873,0.01798 -0.039503,0.03478 -0.06219,0.05011 -0.022703,0.01533 -0.047464,0.028 -0.07398,0.03832 -0.026532,0.01031 -0.054819,0.01562 -0.084893,0.01562 -0.053639,0 -0.104917,-0.0068 -0.154136,-0.02034 -0.049234,-0.01356 -0.0952,-0.03301 -0.137941,-0.05806 C 7.330176,10.053702 7.291278,10.023642 7.256498,9.988572 7.221717,9.953489 7.191947,9.914592 7.166898,9.871562 7.141834,9.828518 7.122386,9.781962 7.108825,9.732137 7.095264,9.682327 7.088499,9.630459 7.088499,9.57623 7.088499,9.494288 7.103528,9.417947 7.133587,9.347508 7.163645,9.277069 7.204616,9.215757 7.256499,9.163586 7.308367,9.11143 7.369377,9.07046 7.439528,9.040689 7.509679,9.010918 7.584825,8.996177 7.664996,8.996177 c 0.036551,0 0.070151,0.00531 0.1008,0.01621 0.030664,0.010912 0.058664,0.025351 0.083712,0.043044 0.025049,0.017678 0.047751,0.037717 0.068078,0.060117 0.020342,0.0224 0.038322,0.045103 0.054244,0.068093 L 8.006308,9.076651 C 8.012208,9.061909 8.01722,9.049832 8.02105,9.04069 8.02488,9.03155 8.02901,9.024768 8.03343,9.020348 8.03785,9.015928 8.04315,9.012978 8.04964,9.011508 8.05612,9.010038 8.065259,9.009448 8.07705,9.009448 l 0.131751,0 c 0.00648,0 0.014136,8.778e-4 0.02299,0.00265 0.00884,0.00177 0.016497,0.00589 0.02299,0.01238 0.00825,0.00648 0.014136,0.013849 0.017678,0.022097 0.00354,0.00826 0.0053,0.017693 0.0053,0.028303 l 0,0.996511 z m -0.87095,-0.49516 c 0,0.038897 0.00619,0.075161 0.018283,0.109048 C 7.437168,9.719223 7.454271,9.748691 7.47667,9.773452 7.49907,9.798213 7.526177,9.817662 7.557718,9.8321 7.58926,9.846539 7.62404,9.85391 7.662347,9.85391 7.70185,9.85391 7.738688,9.84654 7.772576,9.8321 7.806479,9.817661 7.835947,9.798213 7.860995,9.773452 7.886059,9.748691 7.905507,9.719223 7.919659,9.68532 7.93381,9.651432 7.940878,9.615169 7.940878,9.576272 7.940878,9.53854 7.933808,9.502579 7.919659,9.468389 7.905508,9.434199 7.886059,9.404141 7.860995,9.378199 7.835946,9.352273 7.806478,9.331628 7.772576,9.316599 7.738688,9.30157 7.70185,9.294199 7.662347,9.294199 c -0.038307,0 -0.073087,0.00737 -0.104629,0.0224 C 7.526176,9.331628 7.499069,9.352272 7.47667,9.378199 7.45427,9.404141 7.437167,9.434199 7.42509,9.468389 7.412997,9.502579 7.406807,9.53854 7.406807,9.576272 Z m 1.25117,0.211331 c 0.015907,0.015907 0.033297,0.029165 0.051868,0.040078 0.018571,0.010897 0.036249,0.019751 0.053351,0.026532 0.017087,0.00677 0.032117,0.01179 0.045087,0.014727 0.012971,0.00295 0.02181,0.00442 0.026532,0.00442 0.0112,0 0.025639,-5.903e-4 0.043029,-0.00147 C 8.895234,9.8710122 8.911747,9.86835 8.927654,9.86393 8.943576,9.85951 8.957425,9.852443 8.968927,9.842423 8.980414,9.832404 8.986015,9.818252 8.986015,9.799969 8.986015,9.783472 8.982775,9.770213 8.976285,9.760482 8.969805,9.750752 8.960378,9.742502 8.947997,9.735721 8.935617,9.728941 8.920587,9.723053 8.902607,9.71774 8.884626,9.71244 8.864285,9.706253 8.841885,9.699169 8.771159,9.680311 8.712798,9.657623 8.666817,9.631091 8.620837,9.604559 8.584588,9.574788 8.557769,9.542081 8.530935,9.509359 8.512076,9.474291 8.501466,9.436559 8.490856,9.398842 8.485544,9.359052 8.485544,9.317188 c 0,-0.048917 0.00973,-0.093429 0.02918,-0.133507 C 8.534188,9.143588 8.561885,9.10911 8.597846,9.08052 8.633807,9.05193 8.676836,9.029817 8.726948,9.014198 8.777045,8.998579 8.832758,8.99092 8.894055,8.99092 c 0.037142,0 0.071922,0.00294 0.104341,0.00913 0.032419,0.00619 0.063371,0.015922 0.092839,0.029181 0.029483,0.013274 0.058361,0.030361 0.086361,0.051293 0.028,0.020917 0.055712,0.045981 0.08341,0.074858 0.010019,0.01179 0.015332,0.022703 0.015619,0.03301 3.027e-4,0.010322 -0.00648,0.021522 -0.020039,0.033312 -0.02299,0.018858 -0.0448,0.037429 -0.065732,0.055697 -0.020917,0.018283 -0.042726,0.03861 -0.065126,0.06101 -0.00708,0.0059 -0.014151,0.00944 -0.021219,0.010912 -0.00708,0.00147 -0.013864,0.00147 -0.020342,-3.027e-4 -0.00649,-0.00176 -0.012683,-0.00471 -0.018571,-0.00884 -0.0059,-0.00412 -0.0112,-0.00913 -0.015922,-0.015029 -0.020629,-0.02299 -0.04421,-0.03861 -0.070726,-0.046571 -0.026532,-0.00796 -0.051293,-0.01179 -0.074283,-0.01179 -0.028878,0 -0.051868,0.00501 -0.068971,0.015029 -0.017088,0.010035 -0.025049,0.025351 -0.023868,0.045981 0.00118,0.015332 0.00707,0.027122 0.01739,0.035673 0.010322,0.00854 0.02299,0.015619 0.038019,0.020917 0.015029,0.00531 0.030951,0.00943 0.047751,0.012683 0.0168,0.00324 0.032117,0.00707 0.046268,0.0112 0.053064,0.017087 0.101693,0.035658 0.145902,0.055697 0.04421,0.020039 0.082517,0.044512 0.114951,0.073693 0.032419,0.029181 0.057756,0.064249 0.075736,0.104917 0.017981,0.040683 0.026819,0.09019 0.026819,0.148551 0,0.058361 -0.011487,0.110532 -0.034765,0.156512 -0.023293,0.045981 -0.055425,0.08459 -0.096093,0.1158287 -0.040668,0.03124 -0.088722,0.05512 -0.144419,0.07162 -0.055712,0.01651 -0.115829,0.02476 -0.180093,0.02476 -0.036536,0 -0.073678,-0.0032 -0.11141,-0.0097 -0.037717,-0.0065 -0.074268,-0.01709 -0.109639,-0.03153 -0.035371,-0.01445 -0.068971,-0.03301 -0.1008,-0.05571 C 8.515614,10.040222 8.487311,10.012812 8.462565,9.98038 8.456075,9.97213 8.451365,9.963292 8.448111,9.954151 8.444871,9.945021 8.443401,9.93617 8.443691,9.927332 8.4439937,9.918492 8.445761,9.910244 8.449001,9.902874 8.452241,9.895504 8.457251,9.889313 8.464318,9.884001 L 8.578391,9.769943 C 8.592527,9.758153 8.60521,9.754021 8.616108,9.757562 8.62702,9.761102 8.640869,9.771123 8.657972,9.787636 Z"
       id="path27"
       inkscape:connector-curvature="0"
       style="fill:#f8c300;fill-rule:nonzero" /></g></svg>