<?xml version="1.0" encoding="UTF-8"?>
<!DOCTYPE svg PUBLIC "-//W3C//DTD SVG 1.1//EN" "http://www.w3.org/Graphics/SVG/1.1/DTD/svg11.dtd">
<!-- Creator: CorelDRAW -->
<svg xmlns="http://www.w3.org/2000/svg" xml:space="preserve" width="48.4861mm" height="44.5251mm" style="shape-rendering:geometricPrecision; text-rendering:geometricPrecision; image-rendering:optimizeQuality; fill-rule:evenodd; clip-rule:evenodd"
viewBox="0 0 19.6646 18.0581"
 xmlns:xlink="http://www.w3.org/1999/xlink">
 <defs>
  <style type="text/css">
   <![CDATA[
    .fil10 {fill:#1F1A17}
    .fil12 {fill:white}
    .fil5 {fill:#357646}
    .fil11 {fill:#4687AC}
    .fil4 {fill:#6B9A94}
    .fil1 {fill:#7AA045}
    .fil3 {fill:#9CC543}
    .fil6 {fill:#EF855B}
    .fil0 {fill:#F09051}
    .fil9 {fill:#F3AB39}
    .fil7 {fill:#F5A551}
    .fil2 {fill:#F6D542}
    .fil8 {fill:#FAC174}
    .fil14 {fill:#1F1A17;fill-opacity:0.101961}
    .fil13 {fill:#1F1A17;fill-opacity:0.141176}
    .fil15 {fill:url(#id14)}
    .fil16 {fill:url(#id15)}
   ]]>
  </style>
   <mask id="id0">
  <linearGradient id="id1" gradientUnits="userSpaceOnUse" x1="6.26433" y1="8.33676" x2="7.00879" y2="3.87507">
   <stop offset="0" style="stop-opacity:1; stop-color:white"/>
   <stop offset="0.290196" style="stop-opacity:0.501961; stop-color:white"/>
   <stop offset="1" style="stop-opacity:0; stop-color:white"/>
  </linearGradient>
    <rect style="fill:url(#id1)" x="3.22595" y="2.38147" width="6.82122" height="7.44884"/>
   </mask>
   <mask id="id2">
  <linearGradient id="id3" gradientUnits="userSpaceOnUse" x1="8.90301" y1="4.37327" x2="17.008" y2="0.151359">
   <stop offset="0" style="stop-opacity:0.188235; stop-color:white"/>
   <stop offset="1" style="stop-opacity:0; stop-color:white"/>
  </linearGradient>
    <rect style="fill:url(#id3)" x="6.28716" y="-0.0405571" width="13.3367" height="4.60575"/>
   </mask>
   <mask id="id4">
  <linearGradient id="id5" gradientUnits="userSpaceOnUse" x1="10.7146" y1="3.50803" x2="16.9959" y2="10.2029">
   <stop offset="0" style="stop-opacity:1; stop-color:white"/>
   <stop offset="0.45098" style="stop-opacity:0.501961; stop-color:white"/>
   <stop offset="1" style="stop-opacity:0; stop-color:white"/>
  </linearGradient>
    <rect style="fill:url(#id5)" x="8.00577" y="1.41313" width="11.6989" height="10.8846"/>
   </mask>
   <mask id="id6">
  <linearGradient id="id7" gradientUnits="userSpaceOnUse" x1="10.019" y1="14.3523" x2="12.9133" y2="15.2609">
   <stop offset="0" style="stop-opacity:1; stop-color:white"/>
   <stop offset="0.160784" style="stop-opacity:0.501961; stop-color:white"/>
   <stop offset="1" style="stop-opacity:0; stop-color:white"/>
  </linearGradient>
    <rect style="fill:url(#id7)" x="8.04397" y="12.2117" width="6.84434" height="5.18989"/>
   </mask>
   <mask id="id8">
  <linearGradient id="id9" gradientUnits="userSpaceOnUse" x1="8.16994" y1="12.5042" x2="9.70933" y2="17.0569">
   <stop offset="0" style="stop-opacity:1; stop-color:white"/>
   <stop offset="0.270588" style="stop-opacity:0.501961; stop-color:white"/>
   <stop offset="1" style="stop-opacity:0; stop-color:white"/>
  </linearGradient>
    <rect style="fill:url(#id9)" x="2.77995" y="11.5245" width="12.3194" height="6.51205"/>
   </mask>
   <mask id="id10">
  <linearGradient id="id11" gradientUnits="userSpaceOnUse" x1="7.7123" y1="13.8006" x2="12.5544" y2="18.626">
   <stop offset="0" style="stop-opacity:1; stop-color:white"/>
   <stop offset="0.270588" style="stop-opacity:0.501961; stop-color:white"/>
   <stop offset="1" style="stop-opacity:0; stop-color:white"/>
  </linearGradient>
    <rect style="fill:url(#id11)" x="5.16734" y="14.39" width="9.93199" height="3.64653"/>
   </mask>
   <mask id="id12">
  <linearGradient id="id13" gradientUnits="userSpaceOnUse" x1="8.53236" y1="6.034" x2="5.89566" y2="11.3139">
   <stop offset="0" style="stop-opacity:1; stop-color:white"/>
   <stop offset="1" style="stop-opacity:0; stop-color:white"/>
  </linearGradient>
    <rect style="fill:url(#id13)" x="-0.0401921" y="5.06554" width="14.5084" height="7.21681"/>
   </mask>
  <radialGradient id="id14" gradientUnits="userSpaceOnUse" cx="17.6137" cy="12.3144" r="1.32873" fx="17.6137" fy="12.3144">
   <stop offset="0" style="stop-color:#F7D24C"/>
   <stop offset="1" style="stop-color:#F3AB39"/>
  </radialGradient>
  <radialGradient id="id15" gradientUnits="userSpaceOnUse" cx="16.7846" cy="12.9129" r="0.299879" fx="16.7846" fy="12.9129">
   <stop offset="0" style="stop-color:#F7D55A"/>
   <stop offset="1" style="stop-color:#F4B347"/>
  </radialGradient>
 </defs>
 <g id="Camada_x0020_1">
  <metadata id="CorelCorpID_0Corel-Layer"/>
  <path class="fil0" d="M8.08453 12.2561c-0.0949847,7.41988 5.66603,5.13863 6.60602,3.11552 0.133352,-0.287104 0.260133,-0.651712 0.0296878,-0.885848 -0.1645,-0.01383 -0.378479,0.0418144 -0.617685,0.179952 -3.01408,1.74051 -5.56383,0.588524 -5.90645,-2.41347 -0.0372314,0.00137894 -0.0744628,0.00263621 -0.111573,0.00385292z"/>
  <path class="fil1" d="M8.34045 8.7214c1.91417,-9.66821 10.0978,-8.18227 11.2428,-4.19677 -0.518847,-2.6163 -3.44411,-4.79255 -7.22095,-4.49778 -5.80912,0.453307 -8.63449,5.14479 -9.09582,9.55813 0.991581,0.30215 3.61335,0.308721 4.9066,-0.243789 0.0491147,-0.214709 0.105002,-0.421267 0.167339,-0.619794z"/>
  <path class="fil2" d="M14.6906 15.3716c-0.939992,2.02311 -6.70101,4.30437 -6.60602,-3.11552 -1.88655,0.0592539 -3.70684,-0.152616 -5.26403,-0.635854 0.543465,5.93342 8.37484,8.87982 11.9539,3.914 0.442316,-0.61371 0.325674,-1.01644 -0.0541843,-1.04848 0.230445,0.234136 0.103664,0.598745 -0.0296878,0.885848z"/>
  <path class="fil3" d="M8.34045 8.7214c1.25516,-3.99897 5.05723,-4.71906 5.77485,-3.5934 1.74485,2.73489 -4.32412,6.59511 -5.92337,7.08553 -0.0481413,0.0147222 -0.0967287,0.0293228 -0.1456,0.0436394 0.0127349,-0.000365014 0.0254699,-0.000730028 0.0382048,-0.00109504l0.111573 -0.00385292c1.50649,-0.055766 3.05269,-0.284103 4.5385,-0.684969 5.55941,-1.49992 7.35653,-4.48209 6.84868,-7.04262 -1.14505,-3.98551 -9.32866,-5.47144 -11.2428,4.19677z"/>
  <path class="fil4" d="M10.9282 8.77498c-1.28659,1.37732 -3.07545,2.00182 -4.88344,2.17301 -2.32469,0.220022 -4.68151,-0.309329 -6.04439,-0.951997 -0.00628635,0.125646 0.0690282,0.266298 0.258754,0.401718 0.71924,0.513291 1.58899,0.920849 2.56138,1.22251 1.54669,0.479993 3.35286,0.692269 5.22582,0.636949l0.1456 -0.0436394c1.59884,-0.490295 7.66525,-4.34878 5.92462,-7.08358 0.000851699,0.00137894 0.00174396,0.00271733 0.00259565,0.0039746 0.356943,0.571652 -0.0749495,1.61324 -2.02027,2.94011 -0.360188,0.245654 -0.751523,0.481372 -1.17068,0.700948z"/>
  <path class="fil5" d="M10.0404 4.32736c5.5068,-5.3391 10.9513,1.97302 5.94352,5.99673 3.01323,-1.6027 3.9907,-3.8262 3.59936,-5.79946 -0.925391,-3.22088 -6.44769,-4.80922 -9.54288,-0.19727z"/>
  <path class="fil6" d="M4.81445 9.78347c0.501286,-5.02198 4.44607,-9.82492 9.12669,-9.73573 -0.505342,-0.0545493 -1.03323,-0.0634313 -1.57881,-0.0208869 -5.80912,0.453307 -8.63449,5.14479 -9.09582,9.55813 0.353496,0.10772 0.914157,0.177843 1.54794,0.198486z"/>
  <path class="fil7" d="M4.86268 12.079c-0.716117,-0.10699 -1.40149,-0.259849 -2.04217,-0.458741 0.321821,3.51411 3.20012,5.98039 6.2372,6.37582 -2.41445,-0.714008 -3.82729,-3.31721 -4.19502,-5.91708z"/>
  <path class="fil8" d="M8.20377 14.0972c1.26072,3.4085 5.55024,2.3118 6.43759,0.387158 -0.151643,0.00652969 -0.336178,0.064283 -0.538801,0.18129 -3.01408,1.74051 -5.56383,0.588524 -5.90645,-2.41347 -0.0372314,0.00137894 -0.0744628,0.00263621 -0.111573,0.00385292 -0.00888201,0.696487 0.0337841,1.30748 0.119238,1.84117z"/>
  <circle class="fil9" transform="matrix(2.31919 0.111262 -0.111262 2.31919 16.8498 12.8923)" r="0.603693"/>
  <path class="fil10" style="mask:url(#id0)" d="M3.52737 9.65028l0 0zm0.31083 0.0535354l0 0zm0.148033 0.0193052l0 0zm6.02038 -5.34502c-0.647859,-1.62139 -2.03698,-2.46555 -3.67889,-1.62894 -1.82,1.84896 -2.80505,4.38524 -3.06121,6.83582l0.0337841 0.0100176 0.01383 0.00393404 0.00348791 0.000892256 0.00579967 0.00158173 0.0296878 0.00819254 0.010991 0.002839 0.00717861 0.00186563 0.0372314 0.00924702 0.00790864 0.0019873 0.0111532 0.00259565 0.0193052 0.00458295 0.0196702 0.00446128 0.00429905 0.000973371 0.0154928 0.00332568 0.0201569 0.00433961 0.0208869 0.00446128 0.0201569 0.00409627 0.0384887 0.00754362 0.00356903 0.000730028 0.0430311 0.00803031 0.0138705 0.00247398 0.00803031 0.00150061 0.0221442 0.00381237 0.0223875 0.00385292 0.00989593 0.00158173 0.0127349 0.00210897 0.0458701 0.00730028 0.00584022 0.000892256 0.0175612 0.00271733 0.0234826 0.00344735 0.0249832 0.00360958 0.0227525 0.00320401 0.0242531 0.00332568 0.0207652 0.00271733 0.00360958 0.000486685 0.049358 0.00632691 0.0165473 0.0019873 0.00953092 0.00109504 0.0496013 0.00584022 0.0118832 0.00133838 0.0137083 0.00150061 0.0257538 0.002839 0.0259565 0.00271733 0.00717861 0.000730028 0.0190618 0.00186563 0.0263216 0.00259565 0.0264838 0.00259565 0.00210897 0.000121671 0.0514264 0.00470462 0.0238881 0.00210897 0.00320401 0.000243343 0.0272138 0.00223064 0.0273355 0.00223064 0.0189402 0.00146006 0.00863866 0.000648914 0.0277005 0.00206841 0.0278627 0.0019873 0.0137083 0.00101393 0.0142355 0.000973371 0.0563744 0.00356903 0.00843588 0.000527242 0.0200352 0.00121671 0.0284305 0.00162228 0.0287144 0.00158173 0.00296067 0.000121671 0.0258349 0.00137894 0.0289578 0.00150061 0.0264838 0.00121671 0.00259565 0.000121671 0.0291606 0.00125727 0.0293228 0.00121671 0.0210491 0.000851699 0.00839532 0.0002839 0.0295661 0.00109504 0.0296878 0.000973371c1.14408,0.0372314 2.52638,-0.0866705 3.35866,-0.442275 0.0491147,-0.214709 0.105002,-0.421267 0.167339,-0.619794 0.361526,-1.82633 0.946927,-3.25463 1.66617,-4.3433z"/>
  <path class="fil11" d="M6.04475 10.948c1.808,-0.171192 3.59685,-0.79569 4.88344,-2.17301 -2.54431,1.33295 -6.11325,2.07194 -9.96776,0.843263 -0.486847,-0.126782 -0.945224,0.0847238 -0.960068,0.377749 1.36288,0.642668 3.71969,1.17202 6.04439,0.951997z"/>
  <path class="fil12" style="mask:url(#id2)" d="M13.9411 0.0477357l-0.00219008 0 0.00219008 0zm-0.205422 -0.0195485l0 0zm-3.69532 4.29917c3.0952,-4.61195 8.61749,-3.02361 9.54288,0.19727 -0.443898,-2.23831 -2.64919,-4.15418 -5.64214,-4.47665 -0.000730028,-0.000121671 -0.00146006,-0.000121671 -0.00219008,-0.000243343l-0.0241315 -0.00271733 -0.0247398 -0.00259565 -0.15436 -0.0142355 -0.00904423 -0.000730028c-0.103867,-0.00851699 -0.20891,-0.0149656 -0.31452,-0.0195485l-0.011356 -0.000486685 -0.0130188 -0.000486685 -0.14706 -0.00470462 -0.00953092 -0.000243343 -0.0150872 -0.000243343 -0.148277 -0.00174396 -0.00766529 0c-0.0552793,-0.000121671 -0.110843,0.000365014 -0.166609,0.00137894l-0.00592134 0.000121671c-0.114817,0.00206841 -0.230445,0.00640802 -0.346966,0.0132216l-0.0019873 0.000121671 -0.176342 0.0120049c-2.58353,0.201609 -4.57687,1.24141 -6.03461,2.72231 1.2041,-0.613507 2.43659,-0.371422 3.25613,0.82631 0.165514,0.241923 0.306368,0.511344 0.422767,0.802625 0.0112749,-0.0169529 0.0225092,-0.0339057 0.0337841,-0.0507369z"/>
  <path class="fil10" style="mask:url(#id4)" d="M8.34045 8.7214c1.25516,-3.99897 5.05723,-4.71906 5.77485,-3.5934 1.74485,2.73489 -4.32412,6.59511 -5.92337,7.08553 -0.0481413,0.0147222 -0.0967287,0.0293228 -0.1456,0.0436394 0.0127349,-0.000365014 0.0254699,-0.000730028 0.0382048,-0.00109504l0.111573 -0.00385292c1.50649,-0.055766 3.05269,-0.284103 4.5385,-0.684969 5.55941,-1.49992 7.35653,-4.48209 6.84868,-7.04262 -1.14505,-3.98551 -9.32866,-5.47144 -11.2428,4.19677z"/>
  <path class="fil10" style="mask:url(#id6)" d="M8.08453 12.2561c-0.0949847,7.41988 5.66603,5.13863 6.60602,3.11552 0.133352,-0.287104 0.260133,-0.651712 0.0296878,-0.885848 -0.1645,-0.01383 -0.378479,0.0418144 -0.617685,0.179952 -3.01408,1.74051 -5.56383,0.588524 -5.90645,-2.41347 -0.0372314,0.00137894 -0.0744628,0.00263621 -0.111573,0.00385292z"/>
  <path class="fil10" style="mask:url(#id8)" d="M4.86268 12.0238l-0.0272138 -0.00409627 -0.00628635 -0.000973371 -0.0335407 -0.00506964 -0.0335002 -0.00519131 -0.00807086 -0.00137894 -0.0253482 -0.0039746 -0.0332568 -0.00531298 -0.0225092 -0.00356903 -0.0108693 -0.00174396 -0.0664325 -0.010991 -0.00348791 -0.000608357 -0.062823 -0.0106665 -0.0176829 -0.00308234 -0.0154523 -0.00259565 -0.0330135 -0.00579967 -0.0317968 -0.00571855 -0.00125727 -0.000121671 -0.0328918 -0.00592134 -0.0457484 -0.00839532 -0.0199135 -0.00360958 -0.0327701 -0.00616468 -0.0269705 -0.00506964 -0.00579967 -0.0011356 -0.032689 -0.00628635 -0.0326485 -0.00632691 -0.00827365 -0.00162228 -0.0242531 -0.00466407 -0.0325268 -0.00657025 -0.0222659 -0.00446128 -0.0102609 -0.0019873 -0.0324051 -0.00665137 -0.0322835 -0.00669192 -0.00381237 -0.000730028 -0.0285928 -0.00596189 -0.0322835 -0.00677304 -0.0175612 -0.00373125 -0.0146006 -0.00308234 -0.0634313 -0.0138705 -0.000892256 -0.000121671 -0.063918 -0.014195 -0.0129783 -0.00300123 -0.0189402 -0.00417738 -0.0319184 -0.00730028 -0.0265649 -0.00620524 -0.00523187 -0.00109504 -0.0317562 -0.00742195 -0.0949847 -0.0226309 -0.0220225 -0.00531298 -0.00953092 -0.00235231 -0.0629446 -0.0156145 -0.0039746 -0.000973371 -0.121104 -0.0309045 -0.0307828 -0.00807086 -0.000365014 0 -0.0310667 -0.00827365 -0.0310262 -0.00827365 -0.0128566 -0.00348791 -0.0180479 -0.0048263 -0.0309451 -0.00839532 -0.0260782 -0.00717861 -0.00470462 -0.00133838 -0.0308234 -0.00855755 -0.0306612 -0.00851699 -0.00851699 -0.00247398 -0.0221442 -0.00632691 -0.0305395 -0.00863866 -0.0216575 -0.00632691 -0.00892256 -0.00259565 -0.0304178 -0.00888201 -0.0302962 -0.00892256 -0.00433961 -0.00125727 -0.0260782 -0.00778696 -0.0301745 -0.00900368 -0.0171962 -0.00519131 -0.0130188 -0.0039746 -0.0301745 -0.00928758 -0.0300528 -0.00924702c0.00778696,0.0844804 0.0174396,0.168069 0.0281061,0.251292l0.00506964 0.0402326c0.0107476,0.0805059 0.0228742,0.160525 0.0363392,0.239814l0.00657025 0.0369881c0.0143572,0.0818848 0.0296878,0.163121 0.046884,0.243667l0.00194674 0.00912535c0.0169529,0.0794108 0.0356497,0.158213 0.0551982,0.236245l0.00713805 0.0288361c0.0194269,0.0758012 0.0402326,0.150872 0.0620929,0.225579l0.0136272 0.045789c0.0223875,0.0744223 0.0456267,0.148277 0.0703666,0.221523l0.00839532 0.0240909c0.0238881,0.0697582 0.0488713,0.138908 0.0748279,0.207409l0.0123699 0.0329324c0.0274572,0.0713399 0.0562933,0.14199 0.0859811,0.211992l0.0164662 0.0386915c0.0304178,0.0707721 0.0619307,0.140895 0.0946197,0.210167l0.0123699 0.0254699c0.0321212,0.0675276 0.0652969,0.134447 0.0995271,0.200595l0.00916591 0.0179668c0.0356091,0.0682576 0.0723539,0.135664 0.110194,0.202461l0.0193052 0.0340274c0.0373531,0.0652969 0.0757201,0.129864 0.114898,0.19366l0.0209275 0.0334191c0.0391782,0.062823 0.0790052,0.125038 0.12009,0.1864l0.00519131 0.00803031c0.0425444,0.0634313 0.0864677,0.125646 0.130837,0.187495l0.0237665 0.0331352c0.044045,0.0605112 0.0888201,0.12013 0.134568,0.178979l0.0202786 0.0257538c0.047249,0.0601056 0.0951064,0.119725 0.144099,0.178086l0.00109504 0.00137894 0.00150061 0.00182507 0.00657025 0.00754362c0.046884,0.0558066 0.0946197,0.110478 0.143085,0.164621l0.0261188 0.0293228c0.0483441,0.0534543 0.0973371,0.106138 0.147182,0.15797l0.0338652 0.0348791c0.0509803,0.0523187 0.102407,0.103988 0.154847,0.154847l0.0131405 0.0124916c0.0524403,0.050453 0.105611,0.100054 0.15943,0.148926l0.0231175 0.0210086c0.0539409,0.0484657 0.10849,0.0961203 0.16377,0.142964l0.0352441 0.0295661c0.0549143,0.0460323 0.110315,0.0914157 0.166487,0.135704l0.0300528 0.0233609c0.052197,0.0408004 0.105002,0.0809114 0.158294,0.120333l0.0272138 0.0203191c0.0581589,0.0425444 0.117007,0.0840749 0.176261,0.124916l0.0369881 0.0252265c0.0598623,0.0406788 0.12009,0.0806275 0.181087,0.119603l0.0275788 0.0173179c0.05897,0.0373531 0.118467,0.0738139 0.178451,0.109464l0.0194269 0.0115993c0.0627013,0.0369881 0.126173,0.0728811 0.189848,0.108004l0.0384887 0.0210086c0.0625796,0.0340274 0.125524,0.0670409 0.188874,0.0992027l0.0342302 0.0171962c0.0603895,0.0301745 0.120982,0.0596189 0.181939,0.0880495l0.0295661 0.0138705c0.0638369,0.0294445 0.128039,0.0577533 0.192443,0.0853321l0.0371098 0.0158173c0.0645669,0.0272138 0.129377,0.0534543 0.194431,0.0786808l0.0453023 0.0173179c0.0665137,0.0253482 0.133068,0.0499664 0.200109,0.0732056l0.00421794 0.00150061 0.00827365 0.00271733c0.0671626,0.0232392 0.134812,0.0451401 0.202461,0.0663109l0.0360147 0.0112343c0.0665137,0.0205219 0.133311,0.0398271 0.200352,0.0584022l0.0479791 0.0129783c0.0676898,0.0181696 0.135339,0.0353658 0.203353,0.0515886l0.0234826 0.00531298c0.0646886,0.0150872 0.129499,0.0290389 0.194593,0.0423011l0.0380831 0.00790864c0.0677709,0.013465 0.135907,0.0254699 0.203962,0.0368664l0.0462351 0.00754362c0.0645669,0.0105043 0.129134,0.0200352 0.193822,0.0284305l-0.00235231 -0.000730028c2.09165,0.273477 4.2591,-0.435502 5.71908,-2.46109 0.442316,-0.613751 0.325674,-1.01644 -0.0541843,-1.04848 0.230445,0.234136 0.103664,0.598745 -0.0296878,0.885848 -0.939992,2.02311 -6.70101,4.30433 -6.60602,-3.11552 -1.11017,0.0348791 -2.19763,-0.0241315 -3.22186,-0.177113z"/>
  <path class="fil12" style="mask:url(#id10)" d="M5.2079 16.1861l0.0775452 0.0666353 0.0352441 0.0295661c0.0549143,0.0460323 0.110315,0.0914157 0.166487,0.135704l0.0300528 0.0233609c0.052197,0.0408004 0.105002,0.0809114 0.158294,0.120333l0.0272138 0.0203191c0.0581589,0.0425444 0.117007,0.0840749 0.176261,0.124916l0.0369881 0.0252265c0.0598623,0.0406788 0.12009,0.0806275 0.181087,0.119603l0.0275788 0.0173179c0.05897,0.0373531 0.118467,0.0738139 0.178451,0.109464l0.0194269 0.0115993c0.0627013,0.0369881 0.126173,0.0728811 0.189848,0.108004l0.0384887 0.0210086c0.0625796,0.0340274 0.125524,0.0670409 0.188874,0.0992027l0.0342302 0.0171962c0.0603895,0.0301745 0.120982,0.0596189 0.181939,0.0880495l0.0295661 0.0138705c0.0638369,0.0294445 0.128039,0.0577533 0.192443,0.0853321l0.0371098 0.0158173c0.0645669,0.0272138 0.129377,0.0534543 0.194431,0.0786808l0.0453023 0.0173179c0.0665137,0.0253482 0.133068,0.0499664 0.200109,0.0732056l0.00421794 0.00150061 0.00827365 0.00271733c0.0671626,0.0232392 0.134812,0.0451401 0.202461,0.0663109l0.0360147 0.0112343c0.0665137,0.0205219 0.133311,0.0398271 0.200352,0.0584022l0.0479791 0.0129783c0.0676898,0.0181696 0.135339,0.0353658 0.203353,0.0515886l0.0234826 0.00531298c0.0646886,0.0150872 0.129499,0.0290389 0.194593,0.0423011l0.0380831 0.00790864c0.0677709,0.013465 0.135907,0.0254699 0.203962,0.0368664l0.0462351 0.00754362c0.0645669,0.0105043 0.129134,0.0200352 0.193822,0.0284305l-0.00235231 -0.000730028c2.09165,0.273477 4.2591,-0.435502 5.71908,-2.46109 0.442316,-0.613751 0.325674,-1.01644 -0.0541843,-1.04848 0.230445,0.234136 0.103664,0.598745 -0.0296878,0.885848 -0.797637,1.71674 -5.06599,3.61814 -6.2827,-0.378601 -1.0705,1.47011 -2.24427,1.62593 -3.19996,1.24823z"/>
  <path class="fil10" style="mask:url(#id12)" d="M10.9286 8.75109c-2.54431,1.33295 -6.11325,2.07198 -9.96776,0.843304 -0.486847,-0.126782 -0.945224,0.0847238 -0.960068,0.377708 -0.00628635,0.125686 0.0690282,0.266298 0.258754,0.401718 0.71924,0.513291 1.58899,0.920849 2.56138,1.22251 1.54669,0.480034 3.35286,0.692269 5.22582,0.63699l0.1456 -0.04368c1.59888,-0.490254 7.66525,-4.34874 5.92462,-7.08354 0.000851699,0.00133838 0.00174396,0.00271733 0.00259565,0.00393404 0.356943,0.571693 -0.0749495,1.61324 -2.02027,2.94015 -0.360188,0.245614 -0.751523,0.481372 -1.17068,0.700908z"/>
  <path class="fil13" d="M0.0228742 9.89022c-0.0127349,0.0310667 -0.0204002,0.0635935 -0.0221442,0.0972154 -0.00628635,0.125686 0.0690282,0.266298 0.258754,0.401759 0.71924,0.513291 1.58899,0.920809 2.56138,1.22247 1.54669,0.480034 3.35286,0.692269 5.22582,0.63699 0.0127349,-0.000365014 0.0254699,-0.000730028 0.0382453,-0.00109504l0.111532 -0.00385292c1.50649,-0.055766 3.05269,-0.284103 4.5385,-0.684969 5.55941,-1.49992 7.35653,-4.48209 6.84872,-7.04262 -0.211505,-0.736314 -0.663839,-1.38701 -1.27199,-1.89807 0.466407,0.462351 0.813089,1.01754 0.989958,1.63315 0.501935,2.53121 -1.27455,5.4791 -6.77012,6.96183 -1.46878,0.396283 -2.99717,0.621903 -4.48643,0.67706l-0.110234 0.00385292c-0.0126133,0.000365014 -0.0252265,0.000730028 -0.0378398,0.00109504 -1.85143,0.054671 -3.63684,-0.155212 -5.16584,-0.62969 -0.961244,-0.298176 -1.82101,-0.70103 -2.53194,-1.20852 -0.0771802,-0.0551577 -0.135299,-0.111045 -0.176383,-0.166609zm8.73328 -2.81616c-0.15943,0.50672 -0.299068,1.05181 -0.415345,1.63883 1.17405,-3.7405 4.57622,-4.61224 5.59838,-3.78799l-0.0171962 -0.0339057c-0.00803031,-0.0130999 -0.0148439,-0.0263216 -0.0231581,-0.0394215l-0.00121671 -0.0019873 -0.00125727 -0.0019873c-0.621254,-0.974384 -3.58103,-0.549427 -5.14021,2.22646z"/>
  <path class="fil14" d="M2.85218 11.6369l-0.00162228 -0.000486685 -0.0300528 -0.00924702c0.00778696,0.0844399 0.0174396,0.168069 0.0281061,0.251292l0.00506964 0.0402326c0.0107476,0.0805059 0.0228742,0.160525 0.0363392,0.239814l0.00657025 0.0369881c0.0143572,0.0818848 0.0296878,0.163121 0.046884,0.243627l0.00194674 0.00916591c0.0169529,0.0794108 0.0356497,0.158213 0.0551982,0.236245l0.00713805 0.0288361c0.0194269,0.0758012 0.0402326,0.150872 0.0620929,0.225579l0.0136272 0.045789c0.0223875,0.0744223 0.0456267,0.148277 0.0703666,0.221482l0.00839532 0.0241315c0.0238881,0.0697582 0.0488713,0.138908 0.0748279,0.207409l0.0123699 0.0329324c0.0274572,0.0713399 0.0562933,0.14199 0.0859811,0.211992l0.0164662 0.0386915c0.0304178,0.0707721 0.0619307,0.140895 0.0946197,0.210167l0.0123699 0.0254699c0.0321212,0.0675276 0.0652969,0.134447 0.0995271,0.200595l0.00916591 0.0179668c0.0356091,0.0682576 0.0723539,0.135664 0.110194,0.202461l0.0193052 0.0339869c0.0373531,0.0653375 0.0757201,0.129904 0.114898,0.193701l0.0209275 0.0334191c0.0391782,0.062823 0.0790052,0.125038 0.12009,0.18636l0.00519131 0.00807086c0.0425444,0.0634313 0.0864677,0.125646 0.130837,0.187495l0.0237665 0.0331352c0.044045,0.0605112 0.0888201,0.12009 0.134568,0.178979l0.0202786 0.0257132c0.047249,0.0601462 0.0951064,0.119765 0.144099,0.178127l0.00109504 0.00133838 0.00150061 0.00186563 0.00657025 0.00754362c0.046884,0.0558066 0.0946197,0.110478 0.143085,0.164621l0.0261188 0.0293228c0.0483441,0.0534543 0.0973371,0.106138 0.147182,0.15797l0.0338652 0.0348791c0.0509803,0.0523187 0.102407,0.103988 0.154847,0.154847l0.0131405 0.0124916c0.0524403,0.050453 0.105611,0.100054 0.15943,0.148885l0.0231175 0.0210491c0.0539409,0.0484657 0.10849,0.0960798 0.16377,0.142964l0.0352441 0.0295661c0.0549143,0.0460323 0.110315,0.0914157 0.166487,0.135704l0.0300528 0.0233609c0.052197,0.0408004 0.105002,0.0809114 0.158294,0.120333l0.0272138 0.0202786c0.0581589,0.042585 0.117007,0.0841154 0.176261,0.124956l0.0369881 0.0252265c0.0598623,0.0406788 0.12009,0.0806275 0.181087,0.119603l0.0275788 0.0173179c0.05897,0.0373531 0.118467,0.0738139 0.178451,0.109464l0.0194269 0.0115993c0.0627013,0.0369881 0.126173,0.0728811 0.189848,0.108004l0.0384887 0.0210086c0.0625796,0.0340274 0.125524,0.0670409 0.188874,0.0992027l0.0342302 0.0171962c0.0603895,0.0301745 0.120982,0.0596189 0.181939,0.0880495l0.0295661 0.0138705c0.0638369,0.0294445 0.128039,0.0577533 0.192443,0.0853321l0.0371098 0.0158173c0.0645669,0.0272138 0.129377,0.0534543 0.194431,0.0786808l0.0453023 0.0173179c0.0665137,0.0253482 0.133068,0.0499664 0.200109,0.0732056l0.00421794 0.00150061 0.00827365 0.00271733c0.0671626,0.0232392 0.134812,0.0451401 0.202461,0.0663109l0.0360147 0.0112343c0.0665137,0.0205219 0.133311,0.0398271 0.200352,0.0584022l0.0479791 0.0129783c0.0676898,0.0181696 0.135339,0.0353658 0.203353,0.0515481l0.0234826 0.00535354c0.0646886,0.0150872 0.129499,0.0290389 0.194593,0.0423011l0.0380831 0.00790864c0.0677709,0.013465 0.135907,0.0254699 0.203962,0.0368664l0.0462351 0.00754362c0.0645669,0.0105043 0.129134,0.0200352 0.193822,0.0284305l-0.00235231 -0.000730028c2.09165,0.273436 4.2591,-0.435502 5.71908,-2.46109 0.188753,-0.261837 0.275707,-0.485347 0.283859,-0.657998 -0.0347574,0.150994 -0.119846,0.330824 -0.266055,0.533691 -1.45997,2.02558 -3.62743,2.73456 -5.71908,2.46109l0.00235231 0.000730028c-0.0646886,-0.00839532 -0.129255,-0.0179262 -0.193822,-0.0284305l-0.0462351 -0.00754362c-0.0680143,-0.0113965 -0.136191,-0.0234014 -0.203962,-0.0368664l-0.0380831 -0.00790864c-0.0650536,-0.0132622 -0.129864,-0.0272138 -0.194552,-0.0423011l-0.0235231 -0.00531298c-0.0680143,-0.0162228 -0.135664,-0.0334191 -0.203313,-0.0515886l-0.0480196 -0.0129783c-0.0670409,-0.0185752 -0.133798,-0.0378803 -0.200352,-0.0584022l-0.0360147 -0.0112343c-0.0676493,-0.0211708 -0.135299,-0.0430716 -0.202461,-0.0663109l-0.00827365 -0.00271733 -0.00421794 -0.00150061c-0.0670409,-0.0232392 -0.133595,-0.0478574 -0.200109,-0.0732056l-0.0452617 -0.0173179c-0.0650942,-0.0252265 -0.129904,-0.051467 -0.194431,-0.0786808l-0.0371098 -0.0158173c-0.0644452,-0.0275788 -0.128647,-0.0558877 -0.192484,-0.0853321l-0.0295661 -0.0138705c-0.0609573,-0.0284305 -0.12155,-0.057875 -0.181939,-0.0880495l-0.0342302 -0.0171962c-0.0633502,-0.0321618 -0.126295,-0.0651753 -0.188874,-0.0992027l-0.0384887 -0.0210086c-0.0636747,-0.0351225 -0.127147,-0.0710155 -0.189848,-0.108004l-0.0194269 -0.0115993c-0.059984,-0.0356497 -0.119481,-0.0721105 -0.178451,-0.109464l-0.0275788 -0.0173179c-0.0609979,-0.0389754 -0.121225,-0.0789241 -0.181087,-0.119603l-0.0369881 -0.0252265c-0.0592539,-0.040841 -0.118102,-0.0823715 -0.176261,-0.124916l-0.0271733 -0.0203191c-0.0533326,-0.0394215 -0.106138,-0.0794919 -0.158335,-0.120333l-0.0300528 -0.0233609c-0.0561716,-0.0442884 -0.111573,-0.0896718 -0.166487,-0.135704l-0.0352441 -0.0295661c-0.0552793,-0.0468435 -0.109829,-0.0944981 -0.16377,-0.142964l-0.0231175 -0.0210086c-0.0538193,-0.0488713 -0.10699,-0.0984727 -0.15943,-0.148926l-0.0130999 -0.0124916c-0.0524403,-0.0508586 -0.103907,-0.102528 -0.154888,-0.154847l-0.0338652 -0.0348791c-0.0498447,-0.051832 -0.0988377,-0.104516 -0.147182,-0.15797l-0.0261188 -0.0293228c-0.0484657,-0.0541437 -0.0962015,-0.108815 -0.143085,-0.164621l-0.00657025 -0.00754362 -0.00146006 -0.00182507 -0.0011356 -0.00137894c-0.0489524,-0.0583617 -0.0968504,-0.117981 -0.144099,-0.178086l-0.0202786 -0.0257538c-0.0457484,-0.0588484 -0.0905235,-0.118467 -0.134568,-0.178979l-0.0237259 -0.0331352c-0.04441,-0.0618496 -0.0883334,-0.124064 -0.130878,-0.187495l-0.00519131 -0.00803031c-0.0410438,-0.0613629 -0.0808709,-0.123577 -0.12009,-0.1864l-0.0209275 -0.0334191c-0.0391782,-0.0637963 -0.0775452,-0.128363 -0.114898,-0.19366l-0.0192646 -0.0340274c-0.0378803,-0.0667976 -0.0745845,-0.134203 -0.110234,-0.202461l-0.00912535 -0.0179668c-0.0342708,-0.0661486 -0.0674059,-0.133068 -0.0995677,-0.200595l-0.0123699 -0.0254699c-0.0326485,-0.0692715 -0.0642019,-0.139395 -0.0946197,-0.210167l-0.0164662 -0.0386915c-0.0296878,-0.0700016 -0.0584833,-0.140652 -0.0859405,-0.211992l-0.0123699 -0.0329324c-0.0259971,-0.068501 -0.0509803,-0.137651 -0.0748279,-0.207409l-0.00843588 -0.0240909c-0.0247398,-0.0732461 -0.0479791,-0.147101 -0.0703666,-0.221523l-0.0136272 -0.045789c-0.0218603,-0.0747062 -0.0426661,-0.149777 -0.0620524,-0.225579l-0.00717861 -0.0288361c-0.0195485,-0.0780319 -0.0382453,-0.156834 -0.0551577,-0.236245l-0.0019873 -0.00912535c-0.0171962,-0.0805464 -0.0325268,-0.161782 -0.046884,-0.243667l-0.00657025 -0.0369881c-0.013465,-0.0792891 -0.0255915,-0.159308 -0.0363392,-0.239814l-0.00506964 -0.0401921 -0.0142355 -0.117291zm11.9814 2.87891c-0.0345141,-0.0118832 -0.0723539,-0.0196702 -0.113317,-0.0231175 0.104029,0.105611 0.135177,0.237949 0.12593,0.377587 0.0261999,-0.123659 0.0290389,-0.246101 -0.0126133,-0.354469z"/>
  <path class="fil15" d="M16.9865 11.4922c0.732826,0.035163 1.29868,0.658039 1.26352,1.39087 -0.0351225,0.732826 -0.657998,1.29868 -1.39087,1.26352 -0.732826,-0.035163 -1.29868,-0.658039 -1.26352,-1.39087 0.035163,-0.732826 0.658039,-1.29868 1.39087,-1.26352z"/>
  <path class="fil16" d="M17.0524 14.0286c-0.0793703,0.012816 -0.161296,0.017764 -0.244722,0.0137083 -0.648914,-0.031229 -1.14992,-0.582441 -1.11893,-1.2316 0.00624579,-0.128769 0.0329729,-0.251657 0.0768963,-0.365866 0.0793703,-0.012816 0.161377,-0.0177235 0.245046,-0.0137894 0.648711,0.031229 1.14959,0.582684 1.11861,1.23148 -0.00616468,0.12889 -0.0328513,0.25186 -0.0768963,0.366068z"/>
 </g>
</svg>
