<?xml version="1.0" encoding="UTF-8" standalone="no"?>
<!-- Created with Inkscape (http://www.inkscape.org/) -->

<svg
   xmlns:dc="http://purl.org/dc/elements/1.1/"
   xmlns:cc="http://creativecommons.org/ns#"
   xmlns:rdf="http://www.w3.org/1999/02/22-rdf-syntax-ns#"
   xmlns:svg="http://www.w3.org/2000/svg"
   xmlns="http://www.w3.org/2000/svg"
   xmlns:sodipodi="http://sodipodi.sourceforge.net/DTD/sodipodi-0.dtd"
   xmlns:inkscape="http://www.inkscape.org/namespaces/inkscape"
   width="321.04544"
   height="406.63388"
   viewBox="0 0 321.04544 406.63388"
   id="svg4557"
   version="1.1"
   inkscape:version="0.91 r13725"
   sodipodi:docname="logo-audiencias-publicas.svg">
  <defs
     id="defs4559" />
  <sodipodi:namedview
     id="base"
     pagecolor="#ffffff"
     bordercolor="#666666"
     borderopacity="1.0"
     inkscape:pageopacity="0.0"
     inkscape:pageshadow="2"
     inkscape:zoom="0.70710678"
     inkscape:cx="991.89433"
     inkscape:cy="35.92447"
     inkscape:document-units="px"
     inkscape:current-layer="layer1"
     showgrid="false"
     units="px"
     inkscape:window-width="1865"
     inkscape:window-height="1053"
     inkscape:window-x="1975"
     inkscape:window-y="27"
     inkscape:window-maximized="1"
     fit-margin-top="0"
     fit-margin-left="0"
     fit-margin-right="0"
     fit-margin-bottom="0" />
  <metadata
     id="metadata4562">
    <rdf:RDF>
      <cc:Work
         rdf:about="">
        <dc:format>image/svg+xml</dc:format>
        <dc:type
           rdf:resource="http://purl.org/dc/dcmitype/StillImage" />
        <dc:title></dc:title>
      </cc:Work>
    </rdf:RDF>
  </metadata>
  <g
     inkscape:label="Camada 1"
     inkscape:groupmode="layer"
     id="layer1"
     transform="translate(1351.8013,401.72569)">
    <g
       id="g5125"
       transform="matrix(0.97548114,0,0,0.97548114,-33.499657,1.3126357)">
      <g
         id="g5698">
        <path
           style="opacity:1;fill:#ffffff;fill-opacity:1;stroke:none;stroke-width:4.63761473;stroke-linecap:round;stroke-linejoin:miter;stroke-miterlimit:3;stroke-dasharray:none;stroke-opacity:1"
           d="m -1298.3877,-413.16875 0,266.98621 114.4492,-66.07677 -8.2096,-14.21767 -5.4673,3.15678 -6.9465,-12.03313 -4.7206,2.72522 -39.2246,-58.85883 c -1.2624,-0.17066 -2.5239,-0.42121 -3.7751,-0.75645 -7.6663,-2.0542 -14.0724,-6.97224 -18.0412,-13.84672 -3.9688,-6.87352 -5.0244,-14.88188 -2.9701,-22.54848 2.0542,-7.66614 6.9727,-14.07206 13.8467,-18.04122 4.7259,-2.72847 9.9855,-4.08065 15.304,-3.99084 2.4173,0.0408 4.8487,0.37863 7.2445,1.02075 7.6661,2.05413 14.0726,6.97251 18.0412,13.84671 3.9689,6.87403 5.0244,14.88187 2.9702,22.54849 -0.3352,1.25092 -0.7482,2.4677 -1.2317,3.64654 l 20.456,41.36556 -3.261,1.61477 -14.3729,-29.06815 c -2.9559,3.54814 -6.5055,6.53033 -10.5857,8.88604 -4.0802,2.35572 -8.4375,3.93736 -12.9883,4.72306 l 29.7227,44.60236 17.617,-10.17106 -6.5584,-13.25513 3.2609,-1.61476 8.0715,16.31493 -4.7207,2.7252 6.9463,12.03314 -5.4674,3.15679 8.2097,14.21767 113.6176,-65.5967 z m 54.1915,66.13737 c -4.6671,-0.0787 -9.2849,1.1067 -13.4321,3.50109 -6.0324,3.48298 -10.347,9.10709 -12.1495,15.83486 -1.8027,6.72777 -0.879,13.75433 2.6039,19.7869 3.4828,6.0328 9.1072,10.34681 15.8349,12.14951 1.1365,0.30451 2.281,0.53164 3.4283,0.6813 l 0.6352,0.0654 c 4.1125,0.42895 8.1917,-0.1126 11.992,-1.57112 0.015,-0.006 0.031,-0.0112 0.046,-0.017 0.3031,-0.11706 0.6046,-0.23994 0.9043,-0.36853 0.024,-0.01 0.047,-0.0216 0.07,-0.0315 0.2762,-0.11979 0.5492,-0.24378 0.8219,-0.37337 0.03,-0.0141 0.06,-0.0272 0.089,-0.0412 0.2745,-0.13159 0.5485,-0.26829 0.8195,-0.40974 0.055,-0.0294 0.1116,-0.0601 0.1672,-0.0897 0.2725,-0.14501 0.5436,-0.29343 0.8124,-0.44856 0.2683,-0.15472 0.5312,-0.3166 0.7928,-0.48006 0.054,-0.034 0.108,-0.0677 0.1623,-0.10175 0.2573,-0.16336 0.5135,-0.33049 0.7639,-0.50188 0.029,-0.0196 0.055,-0.0384 0.084,-0.0583 0.2454,-0.16953 0.4885,-0.34407 0.7274,-0.52128 0.022,-0.0169 0.047,-0.0338 0.07,-0.0509 0.2592,-0.19375 0.5129,-0.39138 0.7638,-0.59401 0.015,-0.0124 0.031,-0.024 0.046,-0.0363 3.1608,-2.5616 5.6679,-5.82237 7.3513,-9.59645 l 0.2571,-0.57704 c 0.4455,-1.07126 0.8244,-2.17736 1.1297,-3.31681 1.8027,-6.72778 0.8764,-13.7541 -2.6063,-19.7869 -3.4828,-6.03227 -9.105,-10.34689 -15.8325,-12.14952 -2.1023,-0.56335 -4.2334,-0.86134 -6.3547,-0.89709 z m 1.1928,7.69559 c 2.1846,-0.0708 4.3925,0.17955 6.5633,0.76131 l -0.943,3.51562 c -4.8502,-1.29957 -9.9148,-0.63172 -14.2638,1.87905 -4.349,2.51084 -7.4604,6.56454 -8.76,11.41487 l -3.5156,-0.94317 c 1.5511,-5.78915 5.2666,-10.62685 10.4572,-13.62365 3.2441,-1.87299 6.821,-2.88614 10.4619,-3.00403 z m 23.836,33.79363 c -1.7536,2.90337 -3.9971,5.48313 -6.6531,7.63739 -0.023,0.0194 -0.047,0.0391 -0.07,0.0582 -0.4656,0.37538 -0.9424,0.73722 -1.433,1.08621 -0.038,0.0272 -0.078,0.0528 -0.1166,0.0799 -0.1946,0.13647 -0.3909,0.27237 -0.5892,0.4049 -0.072,0.0484 -0.1434,0.0953 -0.2158,0.14306 -0.1756,0.11544 -0.3526,0.22988 -0.531,0.34186 -0.07,0.0449 -0.1438,0.0892 -0.2158,0.13334 -0.2447,0.15092 -0.4922,0.29954 -0.7418,0.4437 -0.25,0.14434 -0.501,0.2853 -0.7542,0.42187 -0.075,0.0401 -0.1487,0.0769 -0.2229,0.11644 -0.1873,0.099 -0.3741,0.19598 -0.5626,0.29095 -0.077,0.0383 -0.1535,0.0765 -0.2303,0.11396 -0.2169,0.10676 -0.4336,0.21159 -0.6521,0.31276 -0.039,0.0183 -0.08,0.0375 -0.1193,0.0557 -0.5504,0.25195 -1.1072,0.48414 -1.668,0.7007 -0.024,0.009 -0.047,0.018 -0.07,0.0267 -3.1962,1.22541 -6.5536,1.8799 -9.9479,1.94693 l 3.8623,5.79714 c 4.7112,-0.59358 9.2138,-2.11555 13.3982,-4.53152 4.1846,-2.41615 7.7526,-5.55406 10.6219,-9.33701 z m 25.538,63.87769 -7.7804,4.49271 5.1254,8.88121 7.7829,-4.49273 z"
           id="path4469"
           inkscape:connector-curvature="0"
           sodipodi:nodetypes="ccccccccscscsccsccccsccccccccccccscscscccccccccccccccccccccscssscccccsscccccccccsccccccccccsccccccc" />
        <g
           id="g5609"
           transform="matrix(0.91727274,0,0,0.91727274,-98.187318,3.476263)">
          <g
             transform="translate(0,-53.307021)"
             id="g5597">
            <path
               inkscape:connector-curvature="0"
               id="path5388"
               style="font-style:normal;font-variant:normal;font-weight:normal;font-stretch:normal;font-size:medium;line-height:103.99999619%;font-family:Raleway;-inkscape-font-specification:Raleway;text-align:center;letter-spacing:0px;word-spacing:0px;text-anchor:middle;fill:#ffffff;fill-opacity:1;stroke:none;stroke-width:1px;stroke-linecap:butt;stroke-linejoin:miter;stroke-opacity:1"
               d="m -1346.7421,-74.194357 3.5533,0 17.7665,42.760023 -4.4567,0 -5.5408,-13.370035 -19.2118,0 -5.4805,13.370035 -4.517,0 17.887,-42.760023 z m 10.3588,26.077592 -8.6122,-21.139111 -8.7327,21.139111 17.3449,0 z" />
            <path
               inkscape:connector-curvature="0"
               id="path5390"
               style="font-style:normal;font-variant:normal;font-weight:normal;font-stretch:normal;font-size:medium;line-height:103.99999619%;font-family:Raleway;-inkscape-font-specification:Raleway;text-align:center;letter-spacing:0px;word-spacing:0px;text-anchor:middle;fill:#ffffff;fill-opacity:1;stroke:none;stroke-width:1px;stroke-linecap:butt;stroke-linejoin:miter;stroke-opacity:1"
               d="m -1303.8296,-34.927406 q 4.035,0 6.685,-1.505634 2.7102,-1.56586 4.2761,-4.035101 1.626,-2.529467 2.2283,-5.721412 0.6624,-3.191945 0.6624,-6.444116 l 0,-21.560688 4.2158,0 0,21.560688 q 0,4.336227 -0.9636,8.250878 -0.9636,3.854424 -3.1318,6.805469 -2.1078,2.951043 -5.5407,4.697579 -3.4328,1.746537 -8.3713,1.746537 -5.0589,0 -8.552,-1.806762 -3.4328,-1.866987 -5.5407,-4.878257 -2.1079,-3.011268 -3.0113,-6.865694 -0.9034,-3.854424 -0.9034,-7.94975 l 0,-21.560688 4.1556,0 0,21.560688 q 0,3.372622 0.6624,6.564567 0.6626,3.191945 2.2284,5.661186 1.6261,2.469241 4.276,3.974876 2.6499,1.505634 6.6248,1.505634 z" />
            <path
               inkscape:connector-curvature="0"
               id="path5392"
               style="font-style:normal;font-variant:normal;font-weight:normal;font-stretch:normal;font-size:medium;line-height:103.99999619%;font-family:Raleway;-inkscape-font-specification:Raleway;text-align:center;letter-spacing:0px;word-spacing:0px;text-anchor:middle;fill:#ffffff;fill-opacity:1;stroke:none;stroke-width:1px;stroke-linecap:butt;stroke-linejoin:miter;stroke-opacity:1"
               d="m -1275.6526,-31.434334 0,-42.760023 14.5143,0 q 5.1192,0 8.9134,1.686311 3.8544,1.68631 6.3839,4.577129 2.5897,2.890818 3.8544,6.805468 1.325,3.854425 1.325,8.250878 0,4.878257 -1.4454,8.853132 -1.4455,3.91465 -4.1556,6.745243 -2.6499,2.770368 -6.4442,4.336228 -3.7339,1.505634 -8.4315,1.505634 l -14.5143,0 z m 30.7751,-21.440237 q 0,-3.854425 -1.084,-7.04637 -1.084,-3.252171 -3.192,-5.600961 -2.0476,-2.34879 -5.0589,-3.613523 -3.0113,-1.324959 -6.9259,-1.324959 l -10.2986,0 0,35.292077 10.2986,0 q 3.9749,0 6.9862,-1.324959 3.0715,-1.385184 5.1192,-3.733974 2.0476,-2.409015 3.0714,-5.600961 1.084,-3.252171 1.084,-7.04637 z" />
            <path
               inkscape:connector-curvature="0"
               id="path5394"
               style="font-style:normal;font-variant:normal;font-weight:normal;font-stretch:normal;font-size:medium;line-height:103.99999619%;font-family:Raleway;-inkscape-font-specification:Raleway;text-align:center;letter-spacing:0px;word-spacing:0px;text-anchor:middle;fill:#ffffff;fill-opacity:1;stroke:none;stroke-width:1px;stroke-linecap:butt;stroke-linejoin:miter;stroke-opacity:1"
               d="m -1232.6009,-31.434334 0,-42.760023 4.2159,0 0,42.760023 -4.2159,0 z" />
            <path
               inkscape:connector-curvature="0"
               id="path5396"
               style="font-style:normal;font-variant:normal;font-weight:normal;font-stretch:normal;font-size:medium;line-height:103.99999619%;font-family:Raleway;-inkscape-font-specification:Raleway;text-align:center;letter-spacing:0px;word-spacing:0px;text-anchor:middle;fill:#ffffff;fill-opacity:1;stroke:none;stroke-width:1px;stroke-linecap:butt;stroke-linejoin:miter;stroke-opacity:1"
               d="m -1210.134,-81.541854 5.9021,-5.119158 3.0113,0 5.9623,5.119158 -2.3488,1.264733 -5.1191,-3.7942 -5.1192,3.7942 -2.2886,-1.264733 z m 21.1993,46.373547 0,3.733973 -28.7274,0 0,-42.760023 28.1854,0 0,3.733973 -23.9697,0 0,15.417699 20.8982,0 0,3.553298 -20.8982,0 0,16.32108 24.5117,0 z" />
            <path
               inkscape:connector-curvature="0"
               id="path5398"
               style="font-style:normal;font-variant:normal;font-weight:normal;font-stretch:normal;font-size:medium;line-height:103.99999619%;font-family:Raleway;-inkscape-font-specification:Raleway;text-align:center;letter-spacing:0px;word-spacing:0px;text-anchor:middle;fill:#ffffff;fill-opacity:1;stroke:none;stroke-width:1px;stroke-linecap:butt;stroke-linejoin:miter;stroke-opacity:1"
               d="m -1176.7466,-66.365057 0,34.930723 -4.2157,0 0,-42.760023 3.2522,0 28.3059,35.593202 0,-35.532977 4.2158,0 0,42.699798 -3.6737,0 -27.8845,-34.930723 z" />
            <path
               inkscape:connector-curvature="0"
               id="path5400"
               style="font-style:normal;font-variant:normal;font-weight:normal;font-stretch:normal;font-size:medium;line-height:103.99999619%;font-family:Raleway;-inkscape-font-specification:Raleway;text-align:center;letter-spacing:0px;word-spacing:0px;text-anchor:middle;fill:#ffffff;fill-opacity:1;stroke:none;stroke-width:1px;stroke-linecap:butt;stroke-linejoin:miter;stroke-opacity:1"
               d="m -1137.3299,-53.115473 q 0,-3.854424 1.3249,-7.648624 1.3851,-3.854424 3.9749,-6.865694 2.5897,-3.011268 6.3839,-4.878255 3.7941,-1.927213 8.6122,-1.927213 5.7214,0 9.7565,2.589692 4.0954,2.589691 6.0225,6.745243 l -3.3123,2.047663 q -1.0239,-2.107889 -2.5296,-3.553298 -1.4453,-1.445409 -3.1316,-2.348789 -1.6864,-0.903382 -3.4931,-1.264734 -1.8068,-0.421577 -3.5533,-0.421577 -3.8545,0 -6.8055,1.565859 -2.951,1.56586 -4.9987,4.095327 -1.9875,2.529466 -3.0112,5.721412 -1.0239,3.13172 -1.0239,6.38389 0,3.553298 1.2045,6.805469 1.2647,3.252171 3.3727,5.781636 2.168,2.469241 5.0589,3.974877 2.951,1.445409 6.3839,1.445409 1.8067,0 3.6737,-0.421578 1.9272,-0.481803 3.6738,-1.445409 1.8067,-1.023832 3.3124,-2.469241 1.5056,-1.505635 2.5294,-3.613523 l 3.4931,1.806761 q -1.0238,2.409015 -2.8908,4.276003 -1.867,1.806761 -4.1556,3.071494 -2.2885,1.264734 -4.8783,1.927212 -2.5294,0.662479 -4.9986,0.662479 -4.3964,0 -8.0702,-1.927212 -3.6738,-1.927212 -6.3237,-4.998706 -2.6499,-3.131721 -4.1556,-7.046371 -1.4453,-3.974875 -1.4453,-8.070202 z" />
            <path
               inkscape:connector-curvature="0"
               id="path5402"
               style="font-style:normal;font-variant:normal;font-weight:normal;font-stretch:normal;font-size:medium;line-height:103.99999619%;font-family:Raleway;-inkscape-font-specification:Raleway;text-align:center;letter-spacing:0px;word-spacing:0px;text-anchor:middle;fill:#ffffff;fill-opacity:1;stroke:none;stroke-width:1px;stroke-linecap:butt;stroke-linejoin:miter;stroke-opacity:1"
               d="m -1093.212,-31.434334 0,-42.760023 4.2157,0 0,42.760023 -4.2157,0 z" />
            <path
               inkscape:connector-curvature="0"
               id="path5404"
               style="font-style:normal;font-variant:normal;font-weight:normal;font-stretch:normal;font-size:medium;line-height:103.99999619%;font-family:Raleway;-inkscape-font-specification:Raleway;text-align:center;letter-spacing:0px;word-spacing:0px;text-anchor:middle;fill:#ffffff;fill-opacity:1;stroke:none;stroke-width:1px;stroke-linecap:butt;stroke-linejoin:miter;stroke-opacity:1"
               d="m -1065.0238,-74.194357 3.5533,0 17.7666,42.760023 -4.4568,0 -5.5407,-13.370035 -19.2118,0 -5.4805,13.370035 -4.517,0 17.8869,-42.760023 z m 10.3588,26.077592 -8.6122,-21.139111 -8.7326,21.139111 17.3448,0 z" />
            <path
               inkscape:connector-curvature="0"
               id="path5406"
               style="font-style:normal;font-variant:normal;font-weight:normal;font-stretch:normal;font-size:medium;line-height:103.99999619%;font-family:Raleway;-inkscape-font-specification:Raleway;text-align:center;letter-spacing:0px;word-spacing:0px;text-anchor:middle;fill:#ffffff;fill-opacity:1;stroke:none;stroke-width:1px;stroke-linecap:butt;stroke-linejoin:miter;stroke-opacity:1"
               d="m -1013.2863,-66.184381 q -1.8068,-2.047663 -4.8181,-3.312396 -3.0113,-1.264734 -6.8657,-1.264734 -5.6612,0 -8.2509,2.168115 -2.5896,2.107888 -2.5896,5.781636 0,1.927213 0.6624,3.191946 0.7227,1.204507 2.1682,2.107888 1.4453,0.903381 3.6737,1.56586 2.2886,0.66248 5.3601,1.324959 3.4328,0.722704 6.143,1.626085 2.7703,0.903381 4.6976,2.288565 1.9271,1.324959 2.951,3.252171 1.0238,1.927212 1.0238,4.818031 0,2.951044 -1.1442,5.119158 -1.1443,2.168113 -3.192,3.613523 -2.0476,1.445409 -4.8783,2.168113 -2.8306,0.662479 -6.2032,0.662479 -9.9372,0 -17.1643,-6.203214 l 2.1079,-3.432847 q 1.1443,1.204507 2.7102,2.288565 1.6261,1.084057 3.5533,1.927212 1.9874,0.78293 4.2157,1.264733 2.2284,0.421578 4.6976,0.421578 5.1192,0 7.9498,-1.806762 2.8908,-1.866987 2.8908,-5.600961 0,-1.987437 -0.8431,-3.312396 -0.783,-1.385183 -2.409,-2.34879 -1.6262,-1.023831 -4.0352,-1.746536 -2.409,-0.722705 -5.6009,-1.445409 -3.3726,-0.78293 -5.9021,-1.626086 -2.5295,-0.843155 -4.276,-2.107889 -1.7465,-1.264732 -2.6499,-3.011268 -0.8432,-1.806762 -0.8432,-4.396454 0,-2.951044 1.0841,-5.239608 1.1442,-2.34879 3.1919,-3.854424 2.0477,-1.565861 4.818,-2.348791 2.7705,-0.843156 6.1431,-0.843156 4.276,0 7.5883,1.324959 3.3726,1.264733 6.0828,3.613523 l -2.0476,3.372622 z" />
          </g>
          <g
             transform="translate(0,-53.307021)"
             style="fill:#e67e22;fill-opacity:1;stroke:#e67e22;stroke-opacity:1"
             id="g5587">
            <path
               inkscape:connector-curvature="0"
               id="path5371"
               style="font-style:normal;font-variant:normal;font-weight:600;font-stretch:normal;font-size:medium;line-height:125%;font-family:Raleway;-inkscape-font-specification:'Raleway Semi-Bold';letter-spacing:0px;word-spacing:0px;fill:#e67e22;fill-opacity:1;stroke:#e67e22;stroke-width:3.29909611;stroke-linecap:butt;stroke-linejoin:miter;stroke-miterlimit:4;stroke-dasharray:none;stroke-opacity:1"
               d="m -1364.629,51.361391 0,-53.2144736 22.3351,0 q 3.5977,0 6.5956,1.49899917 3.073,1.49899933 5.2465,3.97234813 2.1736,2.3983988 3.3728,5.5462976 1.2741,3.0729477 1.2741,6.2957967 0,3.372749 -1.1992,6.520646 -1.1242,3.072949 -3.2229,5.546298 -2.0986,2.398399 -5.0965,3.897398 -2.9231,1.42405 -6.5207,1.42405 l -14.3904,0 0,18.51264 -8.3944,0 z m 8.3944,-25.932687 13.8657,0 q 1.7989,0 3.2229,-0.7495 1.499,-0.7495 2.5483,-2.098599 1.0493,-1.349099 1.6489,-3.147898 0.5996,-1.798799 0.5996,-3.972348 0,-2.248499 -0.6745,-4.047298 -0.6746,-1.7987996 -1.8738,-3.0729482 -1.1992,-1.3490993 -2.7731,-2.0236495 -1.4991,-0.7494996 -3.1479,-0.7494996 l -13.4161,0 0,19.8617403 z" />
            <path
               inkscape:connector-curvature="0"
               id="path5373"
               style="font-style:normal;font-variant:normal;font-weight:600;font-stretch:normal;font-size:medium;line-height:125%;font-family:Raleway;-inkscape-font-specification:'Raleway Semi-Bold';letter-spacing:0px;word-spacing:0px;fill:#e67e22;fill-opacity:1;stroke:#e67e22;stroke-width:3.29909611;stroke-linecap:butt;stroke-linejoin:miter;stroke-miterlimit:4;stroke-dasharray:none;stroke-opacity:1"
               d="m -1293.8727,-7.39938 -5.3964,-1.6488992 4.2722,-8.2444958 7.8697,0 -6.7455,9.893395 z m -1.8738,51.565575 q 4.1973,0 6.9704,-1.648899 2.7732,-1.6489 4.422,-4.272148 1.7239,-2.698199 2.3984,-6.070947 0.7495,-3.447699 0.7495,-7.045297 l 0,-26.9819866 8.4694,0 0,26.9819866 q 0,5.471347 -1.2741,10.343095 -1.2743,4.796797 -4.0474,8.469346 -2.7732,3.597598 -7.1951,5.696197 -4.3471,2.098599 -10.4931,2.098599 -6.3707,0 -10.7927,-2.173549 -4.3471,-2.248499 -7.0454,-5.921047 -2.6981,-3.747498 -3.8973,-8.544296 -1.1992,-4.796798 -1.1992,-9.968345 l 0,-26.9819866 8.3943,0 0,26.9819866 q 0,3.672549 0.6746,7.120246 0.7495,3.372749 2.3984,6.070948 1.7238,2.623249 4.497,4.272148 2.848,1.573949 6.9703,1.573949 z" />
            <path
               inkscape:connector-curvature="0"
               id="path5375"
               style="font-style:normal;font-variant:normal;font-weight:600;font-stretch:normal;font-size:medium;line-height:125%;font-family:Raleway;-inkscape-font-specification:'Raleway Semi-Bold';letter-spacing:0px;word-spacing:0px;fill:#e67e22;fill-opacity:1;stroke:#e67e22;stroke-width:3.29909611;stroke-linecap:butt;stroke-linejoin:miter;stroke-miterlimit:4;stroke-dasharray:none;stroke-opacity:1"
               d="m -1219.7507,37.645547 q 0,3.222849 -1.3491,5.771148 -1.2742,2.548298 -3.5227,4.347098 -2.1735,1.723849 -5.1715,2.698199 -2.998,0.899399 -6.3707,0.899399 l -25.4081,0 0,-53.2144736 27.4317,0 q 2.7731,0 5.0216,1.19919933 2.2485,1.19919945 3.8225,3.14789847 1.5739,1.8737491 2.3984,4.3470979 0.8994,2.3983989 0.8994,4.8717479 0,3.897398 -2.0236,7.345096 -1.9488,3.372748 -5.6213,5.021648 4.572,1.349099 7.1952,4.946697 2.6982,3.522648 2.6982,8.619245 z m -8.6192,-1.573948 q 0,-1.6489 -0.5997,-3.147899 -0.5246,-1.498999 -1.499,-2.623249 -0.8994,-1.124249 -2.2485,-1.798799 -1.349,-0.674549 -2.923,-0.674549 l -17.5383,0 0,16.264141 17.0137,0 q 1.6488,0 3.0729,-0.599599 1.424,-0.674549 2.4734,-1.723849 1.0493,-1.124249 1.6488,-2.548299 0.5997,-1.498999 0.5997,-3.147898 z m -24.8085,-30.6545352 0,15.6645422 15.4397,0 q 1.574,0 2.8481,-0.599599 1.3491,-0.599601 2.3234,-1.57395 1.0493,-1.049299 1.574,-2.473348 0.5996,-1.42405 0.5996,-3.147899 0,-3.4476985 -1.9487,-5.6212474 -1.9487,-2.2484988 -4.9467,-2.2484988 l -15.8894,0 z" />
            <path
               inkscape:connector-curvature="0"
               id="path5377"
               style="font-style:normal;font-variant:normal;font-weight:600;font-stretch:normal;font-size:medium;line-height:125%;font-family:Raleway;-inkscape-font-specification:'Raleway Semi-Bold';letter-spacing:0px;word-spacing:0px;fill:#e67e22;fill-opacity:1;stroke:#e67e22;stroke-width:3.29909611;stroke-linecap:butt;stroke-linejoin:miter;stroke-miterlimit:4;stroke-dasharray:none;stroke-opacity:1"
               d="m -1210.923,51.361391 0,-53.2144736 8.3943,0 0,45.7944276 28.556,0 0,7.420046 -36.9503,0 z" />
            <path
               inkscape:connector-curvature="0"
               id="path5379"
               style="font-style:normal;font-variant:normal;font-weight:600;font-stretch:normal;font-size:medium;line-height:125%;font-family:Raleway;-inkscape-font-specification:'Raleway Semi-Bold';letter-spacing:0px;word-spacing:0px;fill:#e67e22;fill-opacity:1;stroke:#e67e22;stroke-width:3.29909611;stroke-linecap:butt;stroke-linejoin:miter;stroke-miterlimit:4;stroke-dasharray:none;stroke-opacity:1"
               d="m -1167.1534,51.361391 0,-53.2144736 8.3944,0 0,53.2144736 -8.3944,0 z" />
            <path
               inkscape:connector-curvature="0"
               id="path5381"
               style="font-style:normal;font-variant:normal;font-weight:600;font-stretch:normal;font-size:medium;line-height:125%;font-family:Raleway;-inkscape-font-specification:'Raleway Semi-Bold';letter-spacing:0px;word-spacing:0px;fill:#e67e22;fill-opacity:1;stroke:#e67e22;stroke-width:3.29909611;stroke-linecap:butt;stroke-linejoin:miter;stroke-miterlimit:4;stroke-dasharray:none;stroke-opacity:1"
               d="m -1150.1784,24.379404 q 0,-4.796798 1.7239,-9.518645 1.7239,-4.796797 5.0216,-8.5442957 3.3727,-3.8224481 8.1696,-6.14589694 4.7967,-2.32344896 10.8676,-2.32344896 7.2702,0 12.4418,3.2228485 5.1715,3.2228484 7.7947,8.3943962 l -6.5955,4.4220469 q -1.1242,-2.398398 -2.6982,-4.0472975 -1.5739,-1.6488991 -3.4477,-2.623249 -1.8738,-0.9743492 -3.8974,-1.349099 -2.0236,-0.4496997 -3.8974,-0.4496997 -4.1972,0 -7.3451,1.723849 -3.1479,1.6488991 -5.3214,4.4220482 -2.0986,2.773149 -3.2229,6.220847 -1.0493,3.447698 -1.0493,6.895396 0,3.897399 1.2741,7.420047 1.2742,3.522648 3.5227,6.220847 2.3234,2.698198 5.4713,4.347097 3.1479,1.57395 6.8954,1.57395 1.9487,0 3.9724,-0.4497 2.0986,-0.52465 3.9723,-1.57395 1.9487,-1.124249 3.5227,-2.773148 1.6489,-1.648899 2.6982,-3.972348 l 6.9703,3.972348 q -1.2741,2.997998 -3.5976,5.321448 -2.3234,2.248498 -5.2465,3.822447 -2.923,1.57395 -6.2208,2.398399 -3.2228,0.82445 -6.3708,0.82445 -5.6212,0 -10.2681,-2.398399 -4.6469,-2.398399 -8.0196,-6.220847 -3.3728,-3.897397 -5.2466,-8.769146 -1.8737,-4.946697 -1.8737,-10.043295 z" />
            <path
               inkscape:connector-curvature="0"
               id="path5383"
               style="font-style:normal;font-variant:normal;font-weight:600;font-stretch:normal;font-size:medium;line-height:125%;font-family:Raleway;-inkscape-font-specification:'Raleway Semi-Bold';letter-spacing:0px;word-spacing:0px;fill:#e67e22;fill-opacity:1;stroke:#e67e22;stroke-width:3.29909611;stroke-linecap:butt;stroke-linejoin:miter;stroke-miterlimit:4;stroke-dasharray:none;stroke-opacity:1"
               d="m -1080.6378,-1.8530826 7.3452,0 20.986,53.2144736 -8.8441,0 -5.6212,-14.465342 -20.5364,0 -5.5463,14.465342 -8.9191,0 21.1359,-53.2144736 z m 12.2169,32.5282846 -8.5442,-22.859739 -8.8441,22.859739 17.3883,0 z" />
            <path
               inkscape:connector-curvature="0"
               id="path5385"
               style="font-style:normal;font-variant:normal;font-weight:600;font-stretch:normal;font-size:medium;line-height:125%;font-family:Raleway;-inkscape-font-specification:'Raleway Semi-Bold';letter-spacing:0px;word-spacing:0px;fill:#e67e22;fill-opacity:1;stroke:#e67e22;stroke-width:3.29909611;stroke-linecap:butt;stroke-linejoin:miter;stroke-miterlimit:4;stroke-dasharray:none;stroke-opacity:1"
               d="m -1015.0518,10.663561 q -0.7495,-0.8244495 -2.1736,-1.7238487 -1.424,-0.9743499 -3.3727,-1.7987995 -1.8737,-0.8244495 -4.1973,-1.3490992 -2.2485,-0.5246498 -4.6468,-0.5246498 -5.3214,0 -7.8698,1.9486987 -2.4733,1.9486998 -2.4733,5.3963975 0,1.9487 0.7495,3.222848 0.8245,1.1992 2.4733,2.173549 1.6489,0.8994 4.1223,1.6489 2.4733,0.674549 5.7712,1.498999 4.0472,0.97435 7.2701,2.173549 3.2978,1.1992 5.5463,2.923048 2.2485,1.72385 3.4476,4.272148 1.2742,2.473349 1.2742,6.070948 0,4.047298 -1.5739,6.970346 -1.499,2.923048 -4.1973,4.796797 -2.6232,1.7988 -6.1458,2.698199 -3.5226,0.82445 -7.57,0.82445 -6.0709,0 -11.7671,-1.798799 -5.6212,-1.873749 -10.1933,-5.396397 l 3.8226,-7.195197 q 0.9743,0.974349 2.7731,2.173549 1.8737,1.199199 4.2721,2.248499 2.4734,0.974349 5.3215,1.723849 2.848,0.674549 5.921,0.674549 4.9468,0 7.6449,-1.723848 2.6982,-1.72385 2.6982,-5.096598 0,-2.023649 -1.0492,-3.372749 -0.9744,-1.349099 -2.8482,-2.323448 -1.8737,-1.0493 -4.5719,-1.873749 -2.6983,-0.82445 -6.146,-1.72385 -3.9722,-1.049299 -6.9703,-2.173549 -2.923,-1.199199 -4.8717,-2.848098 -1.9487,-1.648899 -2.998,-3.822449 -0.9744,-2.248498 -0.9744,-5.396397 0,-3.897397 1.4991,-6.8953959 1.4989,-3.0729486 4.0472,-5.0965976 2.6233,-2.09859898 6.146,-3.1478985 3.5226,-1.0492994 7.6449,-1.0492994 5.3963,0 9.9682,1.7238491 4.5721,1.7238491 8.0198,4.2721478 l -3.8225,6.8953965 z" />
          </g>
        </g>
      </g>
    </g>
  </g>
</svg>
